<?xml version="1.0" encoding="UTF-8"?>
<svg id="Layer_2" data-name="Layer 2" xmlns="http://www.w3.org/2000/svg" viewBox="0 0 698.04 411.09">
  <defs>
    <style>
      .cls-1 {
        fill: #fff;
      }

      .cls-2 {
        fill: #ffbb8d;
      }

      .cls-3 {
        fill: #7be3ff;
      }

      .cls-4 {
        fill: #009aef;
      }

      .cls-5 {
        fill: #161d44;
      }

      .cls-6 {
        fill: #353535;
      }
    </style>
  </defs>
  <g id="layer">
    <g>
      <g>
        <g>
          <rect class="cls-1" x=".68" y="155.54" width="51.91" height="37.82" rx="7.47" ry="7.47"/>
          <path d="M45.83,194.03H7.43c-4.1,0-7.43-3.33-7.43-7.43v-24.31c0-4.1,3.33-7.43,7.43-7.43H45.83c4.1,0,7.43,3.33,7.43,7.43v24.31c0,4.1-3.33,7.43-7.43,7.43ZM7.43,156.22c-3.35,0-6.08,2.73-6.08,6.08v24.31c0,3.35,2.73,6.08,6.08,6.08H45.83c3.35,0,6.08-2.73,6.08-6.08v-24.31c0-3.35-2.73-6.08-6.08-6.08H7.43Z"/>
        </g>
        <g>
          <path class="cls-3" d="M12.33,166.09c.51,.53,1.78,1.66,3.48,1.86-.02,.58-.09,1.85-.42,3.15-.26,1.01-.62,1.83-1.07,2.44-.53,.73-1.2,1.16-1.98,1.3-.78-.14-1.47-.57-2-1.3-.45-.62-.81-1.44-1.07-2.44-.33-1.3-.4-2.57-.42-3.15,1.69-.2,2.97-1.33,3.48-1.86Z"/>
          <path d="M52.59,170.39H20.52c-.37,0-.68-.3-.68-.68s.3-.68,.68-.68H52.59c.37,0,.68,.3,.68,.68s-.3,.68-.68,.68Z"/>
          <path d="M52.59,174.75H20.52c-.37,0-.68-.3-.68-.68s.3-.68,.68-.68H52.59c.37,0,.68,.3,.68,.68s-.3,.68-.68,.68Z"/>
          <path d="M52.59,179.12h-15.43c-.37,0-.68-.3-.68-.68s.3-.68,.68-.68h15.43c.37,0,.68,.3,.68,.68s-.3,.68-.68,.68Z"/>
          <path d="M52.59,183.48H30.48c-.37,0-.68-.3-.68-.68s.3-.68,.68-.68h22.11c.37,0,.68,.3,.68,.68s-.3,.68-.68,.68Z"/>
        </g>
      </g>
      <g>
        <rect class="cls-1" x="320.08" y=".68" width="97.49" height="47.22" rx="6.01" ry="6.01"/>
        <path d="M412.13,48.58h-86.62c-3.37,0-6.11-2.74-6.11-6.11V6.11c0-3.37,2.74-6.11,6.11-6.11h86.62c3.37,0,6.11,2.74,6.11,6.11V42.47c0,3.37-2.74,6.11-6.11,6.11ZM325.51,1.36c-2.62,0-4.75,2.13-4.75,4.75V42.47c0,2.62,2.13,4.75,4.75,4.75h86.62c2.62,0,4.75-2.13,4.75-4.75V6.11c0-2.62-2.13-4.75-4.75-4.75h-86.62Z"/>
      </g>
      <g>
        <rect class="cls-1" x="400.81" y="74.39" width="109.54" height="62.06" rx="6.01" ry="6.01"/>
        <path d="M504.92,137.13h-98.68c-3.37,0-6.11-2.74-6.11-6.11v-51.19c0-3.37,2.74-6.11,6.11-6.11h98.68c3.37,0,6.11,2.74,6.11,6.11v51.19c0,3.37-2.74,6.11-6.11,6.11Zm-98.68-62.06c-2.62,0-4.75,2.13-4.75,4.76v51.19c0,2.62,2.13,4.75,4.75,4.75h98.68c2.62,0,4.75-2.13,4.75-4.75v-51.19c0-2.62-2.13-4.76-4.75-4.76h-98.68Z"/>
      </g>
      <path d="M223.01,382.02H19.78c-.37,0-.68-.3-.68-.68s.3-.68,.68-.68H223.01c.37,0,.68,.3,.68,.68s-.3,.68-.68,.68Z"/>
      <path d="M696.24,382.02h-255.9c-.37,0-.68-.3-.68-.68s.3-.68,.68-.68h255.9c.37,0,.68,.3,.68,.68s-.3,.68-.68,.68Z"/>
      <g>
        <g>
          <path class="cls-1" d="M196.71,10.71h-15.34S123.93,80.55,34.81,89.13c0,0,3.08,294.95,161.9,291.27V10.71Z"/>
          <path d="M193.8,381.34c-30.21,0-56.86-10.96-79.24-32.61-40.71-39.36-60.47-107.87-69.88-158.42-10.18-54.7-10.77-100.72-10.78-101.18,0-.47,.35-.86,.82-.91,45.82-4.41,83.05-25.4,106.22-42.23,25.13-18.26,39.59-35.7,39.74-35.87,.17-.21,.43-.33,.7-.33h15.34c.5,0,.9,.4,.9,.9V380.4c0,.49-.39,.89-.88,.9-.98,.02-1.95,.03-2.92,.03ZM35.72,89.95c.13,6.44,1.33,49.54,10.74,100.07,9.36,50.27,28.99,118.39,69.36,157.42,22.53,21.78,49.42,32.55,79.98,32.08V11.61h-14.01c-2.13,2.5-16.36,18.82-39.75,35.82-23.22,16.87-60.46,37.89-106.32,42.52Z"/>
        </g>
        <path class="cls-3" d="M196.71,10.71S136.02,85.32,50.27,88.66c0,0-4.5,267.13,146.44,291.74,0,0,125.77,.69,143.57-254.21l-10.06-39.78s-50.09-2.7-133.51-75.7Z"/>
        <path class="cls-4" d="M197.59,366.81c-30.16-5.27-55.84-22.14-76.35-50.17-17.37-23.73-31.2-55.42-41.09-94.18-12.77-50.04-15.58-99.11-16.18-121.28,65.24-7.65,114.3-51.28,133.94-71.6,59.98,50.11,102.76,64.57,121.33,68.72l7.36,29.11c-3.99,54.82-13.43,101.59-28.07,139.03-11.63,29.74-26.52,53.59-44.24,70.89-26.81,26.17-51.56,29.15-56.7,29.49Z"/>
      </g>
      <path class="cls-3" d="M418.04,88.54c1.03,1.06,3.6,3.35,7.02,3.75-.03,1.16-.18,3.73-.85,6.35-.52,2.03-1.24,3.69-2.15,4.93-1.07,1.47-2.42,2.35-4,2.63-1.58-.28-2.96-1.16-4.03-2.63-.91-1.24-1.63-2.9-2.15-4.93-.67-2.62-.82-5.19-.85-6.35,3.42-.4,5.99-2.69,7.02-3.75Z"/>
      <path d="M400.81,382.02h-139.44c-.37,0-.68-.3-.68-.68s.3-.68,.68-.68h139.44c.37,0,.68,.3,.68,.68s-.3,.68-.68,.68Z"/>
      <path d="M499.34,96.53h-64.75c-.37,0-.68-.3-.68-.68s.3-.68,.68-.68h64.75c.37,0,.68,.3,.68,.68s-.3,.68-.68,.68Z"/>
      <path d="M499.34,105.35h-64.75c-.37,0-.68-.3-.68-.68s.3-.68,.68-.68h64.75c.37,0,.68,.3,.68,.68s-.3,.68-.68,.68Z"/>
      <path d="M499.34,114.16h-31.16c-.37,0-.68-.3-.68-.68s.3-.68,.68-.68h31.16c.37,0,.68,.3,.68,.68s-.3,.68-.68,.68Z"/>
      <path d="M499.34,122.98h-44.64c-.37,0-.68-.3-.68-.68s.3-.68,.68-.68h44.64c.37,0,.68,.3,.68,.68s-.3,.68-.68,.68Z"/>
      <g>
        <path class="cls-3" d="M337.02,8.06c.84,.87,2.94,2.74,5.74,3.07-.03,.95-.15,3.05-.69,5.2-.42,1.66-1.02,3.02-1.76,4.03-.88,1.2-1.98,1.92-3.27,2.15-1.29-.23-2.42-.95-3.3-2.15-.74-1.02-1.34-2.37-1.76-4.03-.55-2.14-.67-4.25-.69-5.2,2.8-.33,4.9-2.2,5.74-3.07Z"/>
        <path d="M403.5,14.71h-52.95c-.37,0-.68-.3-.68-.68s.3-.68,.68-.68h52.95c.37,0,.68,.3,.68,.68s-.3,.68-.68,.68Z"/>
        <path d="M403.5,21.92h-52.95c-.37,0-.68-.3-.68-.68s.3-.68,.68-.68h52.95c.37,0,.68,.3,.68,.68s-.3,.68-.68,.68Z"/>
        <path d="M403.5,29.13h-25.48c-.37,0-.68-.3-.68-.68s.3-.68,.68-.68h25.48c.37,0,.68,.3,.68,.68s-.3,.68-.68,.68Z"/>
        <path d="M403.5,36.34h-36.51c-.37,0-.68-.3-.68-.68s.3-.68,.68-.68h36.51c.37,0,.68,.3,.68,.68s-.3,.68-.68,.68Z"/>
      </g>
      <g>
        <ellipse class="cls-4" cx="453.8" cy="247.94" rx="4.11" ry="2.79" transform="translate(134.78 654.93) rotate(-80.56)"/>
        <path d="M453.44,252.47c-.13,0-.26-.01-.38-.03-1.76-.29-2.86-2.55-2.45-5.03,.19-1.17,.69-2.23,1.4-2.97,.75-.79,1.66-1.14,2.55-1,.89,.15,1.63,.77,2.09,1.77,.43,.93,.56,2.09,.37,3.26-.38,2.3-1.93,4-3.56,4Zm.72-8.16c-.51,0-1.03,.26-1.5,.75-.58,.61-1,1.5-1.16,2.49-.33,1.95,.46,3.78,1.71,3.99,1.26,.21,2.58-1.27,2.91-3.22,.16-.99,.06-1.97-.29-2.74-.33-.71-.83-1.16-1.42-1.25-.08-.01-.16-.02-.24-.02Z"/>
      </g>
      <g>
        <path class="cls-4" d="M647.25,279.07s8.05-72.43,15-75.86c6.94-3.44,14.61,54.98,15.93,75.86l-6.34,62.65h-24.58v-62.65Z"/>
        <path class="cls-4" d="M626.45,334.04h71.6v21.07c0,14.48-11.75,26.23-26.23,26.23h-19.14c-14.48,0-26.23-11.75-26.23-26.23v-21.07h0Z"/>
        <path class="cls-3" d="M689.62,334.04s13.04-65.81,6.49-90.95c-.46-1.76-2.82-2.07-3.7-.48-5.47,9.89-19.9,39.42-30.16,91.43h27.37Z"/>
        <path class="cls-3" d="M634.77,334.04s-12.91-70.97-6.58-98.63c.45-1.96,3.09-2.31,4-.51,5.61,11.15,19.82,43.2,29.96,99.14h-27.37Z"/>
      </g>
      <g>
        <g>
          <rect class="cls-1" x="30.04" y="285.8" width="98.69" height="50.39" rx="7.47" ry="7.47"/>
          <path d="M121.97,336.88H36.79c-4.1,0-7.43-3.33-7.43-7.43v-36.89c0-4.1,3.33-7.43,7.43-7.43H121.97c4.1,0,7.43,3.33,7.43,7.43v36.89c0,4.1-3.33,7.43-7.43,7.43Zm-85.18-50.39c-3.35,0-6.08,2.73-6.08,6.08v36.89c0,3.35,2.73,6.08,6.08,6.08H121.97c3.35,0,6.08-2.73,6.08-6.08v-36.89c0-3.35-2.73-6.08-6.08-6.08H36.79Z"/>
        </g>
        <g>
          <path class="cls-3" d="M49.27,296.85c.84,.87,2.94,2.74,5.74,3.07-.03,.95-.15,3.05-.69,5.2-.42,1.66-1.02,3.02-1.76,4.03-.88,1.2-1.98,1.92-3.27,2.15-1.29-.23-2.42-.95-3.3-2.15-.74-1.02-1.34-2.37-1.76-4.03-.55-2.14-.67-4.25-.69-5.2,2.8-.33,4.9-2.2,5.74-3.07Z"/>
          <path d="M115.76,303.51H62.8c-.37,0-.68-.3-.68-.68s.3-.68,.68-.68h52.95c.37,0,.68,.3,.68,.68s-.3,.68-.68,.68Z"/>
          <path d="M115.76,310.72H62.8c-.37,0-.68-.3-.68-.68s.3-.68,.68-.68h52.95c.37,0,.68,.3,.68,.68s-.3,.68-.68,.68Z"/>
          <path d="M115.76,317.93h-25.48c-.37,0-.68-.3-.68-.68s.3-.68,.68-.68h25.48c.37,0,.68,.3,.68,.68s-.3,.68-.68,.68Z"/>
          <path d="M115.76,325.13h-36.51c-.37,0-.68-.3-.68-.68s.3-.68,.68-.68h36.51c.37,0,.68,.3,.68,.68s-.3,.68-.68,.68Z"/>
        </g>
      </g>
      <g>
        <path class="cls-1" d="M245.23,175.4h-.73v-21.75c0-18.48-15.04-33.52-33.52-33.52s-33.52,15.04-33.52,33.52v21.75h-.73c-11.37,0-20.62,9.25-20.62,20.62v48.58c0,11.37,9.25,20.62,20.62,20.62h68.49c11.37,0,20.62-9.25,20.62-20.62v-48.58c0-11.37-9.25-20.62-20.62-20.62Zm-62.61-21.75c0-15.64,12.72-28.36,28.36-28.36s28.36,12.72,28.36,28.36v21.75h-56.72v-21.75Zm78.07,90.95c0,8.53-6.94,15.46-15.46,15.46h-68.49c-8.53,0-15.46-6.94-15.46-15.46v-48.58c0-8.53,6.94-15.46,15.46-15.46h68.49c8.53,0,15.46,6.94,15.46,15.46v48.58Z"/>
        <path class="cls-1" d="M210.98,206.32c-7.71,0-13.99,6.27-13.99,13.99s6.27,13.99,13.99,13.99,13.99-6.27,13.99-13.99-6.27-13.99-13.99-13.99Zm0,22.81c-4.87,0-8.83-3.96-8.83-8.83s3.96-8.83,8.83-8.83,8.83,3.96,8.83,8.83-3.96,8.83-8.83,8.83Z"/>
      </g>
      <g>
        <polygon class="cls-2" points="340.28 98 293.77 130.75 284.69 169.84 302.3 198.18 347.16 180.02 368.9 144.51 370.83 107.91 340.28 98"/>
        <path d="M349.72,115.82s-12.44,23.68-42.57,15.07c0,0-14.35,9.59,2.87,17.83h-3.35s1.77,20.96-10.26,23.34c0,0-21.79,17.66-29.2-5.3-4.07-23.68,19.13-16.74,20.33-44.24,1.2-27.5,21.26-38.26,42.68-36.11,20.7,2.15,28.35,10.76,39.83,13.63,11.48,2.87,18.41,18.65,3.83,26.54,0,17.22-.24,48.61-26.54,60.17,0,0-.22-6.34-18.83-10.96l1.15-3.46s18.78,3.62,26.02-16.97c8.37-22.63,10.64-27.61,10.64-27.61,0,0-7.17-1.7-16.6-11.94Z"/>
        <rect class="cls-5" x="535.66" y="371.81" width="1.81" height="17.19" transform="translate(-119.92 420.8) rotate(-38.86)"/>
        <path class="cls-3" d="M295.34,171.76s-51.37,1.83-37.61,69.25c13.76,67.42,22.63,106.15,22.63,106.15l87.04-3.87,66.45-36.23,29.69-33.16-56.68-8.12-33.09-6.32-10.09-43.67s-4.13-30.73-36.23-40.36l-32.1-3.67Z"/>
        <path class="cls-2" d="M510.35,382.26l4.41,8.46,18.43,12.25,11.7-12.25-7.81-9.62-5.91-7.39s-7.88,4.61-20.82,8.55Z"/>
        <path class="cls-2" d="M531.17,373.71l10.78,13.38h14.76l.79-8.24-4.43-5.14-6.48-7.18s-8.36,5.5-14.32,7.58l-1.1-.4Z"/>
        <path d="M514.76,390.72v16.08s.45,3.64,5,4.09,64.07,0,64.07,0c0,0,5.23,0,6.13-6.59,0-3.4-2.95-5.68-7.5-7.04s-31.13-11.13-31.13-11.13l-7.04-7.27s-8.63,.23-8.63,5.23c3.18,4.54,2.73,8.05-20.9,6.64Z"/>
        <path d="M589.97,404.3h11.22s10.43-4.82,3.31-12.27l-37.1-13.42-6.13-6.13s-4.39-1.33-8.9,1.66c-2.03,.99,2.94,7.45,2.94,7.45l-6.77,1.63,2.81,2.9,31.13,11.13s6.88,1.29,7.5,7.04Z"/>
        <path class="cls-2" d="M393.99,263.32s-10.17,7.06-8.83,16.11h4.32l21.07-9.58v-3.54l-16.56-2.99Z"/>
        <g>
          <path class="cls-1" d="M421.28,229.26l-14.42,45.38,6.46,13.39,65.81-18.18s1.58-.18,3.76-4.89,23.01-51.93,23.01-51.93c0,0,2.54-5.87-4.71-5.15-9.24,2.17-74.3,16.64-74.3,16.64,0,0-4.28,.54-5.62,4.75Z"/>
          <path d="M413.32,288.93c-.34,0-.66-.19-.81-.51l-6.46-13.39c-.1-.21-.12-.45-.05-.67l14.42-45.38h0c1.49-4.7,6.17-5.34,6.37-5.37,.57-.13,65.07-14.47,74.2-16.62,.04,0,.08-.01,.12-.02,2.65-.26,4.47,.27,5.43,1.59,1.42,1.94,.25,4.7,.2,4.82-.21,.48-20.87,47.29-23.02,51.95-2.09,4.53-3.79,5.28-4.38,5.4l-65.77,18.17c-.08,.02-.16,.03-.24,.03Zm-5.49-14.36l5.98,12.39,65.08-17.98s.09-.02,.14-.03h0s1.24-.47,3.04-4.37c2.15-4.65,22.8-51.45,23.01-51.92,.22-.53,.67-2.12,0-3.04-.69-.93-2.39-.98-3.73-.86-9.36,2.2-73.6,16.48-74.25,16.63-.23,.03-3.81,.55-4.95,4.14l-14.31,45.04Z"/>
        </g>
        <path class="cls-6" d="M324.44,386.63s22.51,5.24,49.51-7.78c27-13.02,75.21-40.78,75.21-40.78l14.38-22.15-40.5-13.5-74.46,57.27-24.14,26.94Z"/>
        <path class="cls-6" d="M437.61,280.64l41.52-10.79s12.31,.28,22.37,17.34c10.07,17.06,46.17,77.19,46.17,77.19l-1.09,2.15s-7.43,9.66-15.42,7.18-93.56-93.07-93.56-93.07Z"/>
        <path class="cls-2" d="M343.59,279.43h45.89s14.26-8.65,19.02-9.58l-1.64,4.79s7,1.96,19.78-.7c7.14-1.66,5.96,3.25,5.96,3.25,0,0,6.49-1.1,5.01,3.45l-7.75,12.36-77.54,20.49-6.55-6.17s-10.75-10.03-2.19-27.89Z"/>
        <path d="M280.36,347.16s-.28,37.87,34.27,39.93c19.16,.17,32.66-5.49,49.3-14.9s61.55-37.99,75.68-46.16c0,0,8.48,15.53,32.97,30.53,29.83,21.28,37.76,25.7,37.76,25.7l23.01-9.52-57.98-81.84s-7.95-20.54-37.77-10.27c-4.31,2.32-16.9,5.3-16.9,5.3l-70.24,19.88s-43.89,12.49-70.12,41.35Z"/>
      </g>
    </g>
  </g>
</svg>