<?xml version="1.0" encoding="UTF-8"?><svg xmlns="http://www.w3.org/2000/svg" viewBox="0 0 126.71 126.71"><defs><style>.d{fill:#7be3ff;}.e{fill:#009aef;fill-rule:evenodd;}</style></defs><g id="a"/><g id="b"><g id="c"><circle class="d" cx="63.36" cy="63.35" r="15.13"/><g><path class="e" d="M55.16,21.59c-.66,.13-1.2,.6-1.43,1.23l-2.19,6.04c-4.47,1.53-8.59,3.91-12.15,7.02l-6.32-1.13c-.66-.12-1.34,.12-1.78,.63-3.63,4.16-6.41,8.98-8.19,14.19-.22,.64-.09,1.34,.35,1.86l4.14,4.92c-.91,4.63-.91,9.4,0,14.03l-4.14,4.92c-.43,.51-.57,1.22-.35,1.86,1.78,5.22,4.57,10.04,8.19,14.19,.44,.51,1.12,.74,1.78,.63l6.32-1.13c3.56,3.1,7.69,5.49,12.15,7.02l2.19,6.04c.23,.63,.77,1.1,1.43,1.23,5.41,1.06,10.98,1.06,16.39,0,.66-.13,1.21-.6,1.43-1.23l2.19-6.04c4.46-1.53,8.59-3.91,12.15-7.02l6.32,1.13c.66,.12,1.34-.12,1.78-.63,3.63-4.16,6.41-8.98,8.19-14.19,.22-.64,.09-1.34-.35-1.86l-4.14-4.92c.91-4.63,.91-9.4,0-14.03l4.14-4.91c.43-.51,.57-1.22,.35-1.86-1.79-5.22-4.57-10.04-8.19-14.19-.44-.51-1.12-.74-1.78-.63l-6.32,1.13c-3.56-3.1-7.69-5.49-12.15-7.02l-2.19-6.04c-.23-.63-.77-1.1-1.43-1.23-5.41-1.06-10.98-1.06-16.39,0h0Zm1.8,3.57c4.23-.71,8.56-.71,12.79,0l2.13,5.88c.2,.56,.66,1,1.23,1.18,4.58,1.44,8.79,3.87,12.33,7.12,.44,.4,1.04,.58,1.63,.48l6.16-1.09c2.73,3.31,4.89,7.06,6.4,11.08l-4.03,4.78c-.39,.46-.53,1.07-.4,1.65,1.05,4.69,1.05,9.55,0,14.24-.13,.58,.02,1.2,.4,1.65l4.03,4.79c-1.5,4.02-3.67,7.77-6.4,11.08l-6.16-1.09c-.59-.11-1.19,.07-1.63,.48-3.54,3.25-7.75,5.68-12.33,7.12-.57,.18-1.03,.61-1.23,1.18l-2.13,5.88c-4.24,.71-8.56,.71-12.79,0l-2.13-5.88c-.21-.56-.66-1-1.23-1.18-4.58-1.44-8.79-3.87-12.33-7.12-.44-.4-1.04-.58-1.63-.48l-6.16,1.09c-2.73-3.31-4.89-7.06-6.4-11.08l4.03-4.79c.39-.46,.53-1.07,.4-1.65-1.05-4.69-1.05-9.55,0-14.24,.13-.58-.02-1.19-.4-1.65l-4.03-4.78c1.5-4.02,3.67-7.77,6.4-11.08l6.16,1.09c.59,.11,1.19-.07,1.63-.48,3.54-3.25,7.75-5.68,12.33-7.12,.57-.18,1.02-.62,1.23-1.18l2.13-5.88Z"/><path class="e" d="M75.19,55.2c3.04,4.42,3.46,10.38,.61,15.33-3.97,6.87-12.76,9.22-19.63,5.26-6.87-3.97-9.22-12.76-5.26-19.63,3.97-6.87,12.76-9.22,19.63-5.26,.92,.53,2.09,.21,2.62-.7,.53-.92,.21-2.09-.7-2.62-8.7-5.02-19.84-2.04-24.87,6.66-5.02,8.7-2.04,19.84,6.66,24.87,8.7,5.02,19.84,2.04,24.87-6.66,3.62-6.27,3.08-13.82-.77-19.42-.6-.87-1.79-1.09-2.67-.49-.87,.6-1.09,1.79-.49,2.67h0Z"/><path class="e" d="M43.71,7.13c-.84,0-1.58-.54-1.85-1.33-.17-.49-.13-1.02,.1-1.49,.23-.47,.63-.82,1.13-.99,6.51-2.21,13.31-3.32,20.2-3.32,4.26,0,8.55,.43,12.74,1.29,1.06,.22,1.74,1.25,1.53,2.31-.18,.91-.99,1.56-1.92,1.56-.13,0-.26-.01-.39-.04-3.93-.8-7.96-1.21-11.96-1.21-6.46,0-12.84,1.05-18.94,3.12-.2,.07-.42,.1-.63,.1h0Z"/><path class="e" d="M63.43,126.71c-9.14,0-18.37-2.03-26.68-5.86-.98-.45-1.41-1.62-.96-2.59,.32-.69,1.02-1.14,1.78-1.14,.28,0,.56,.06,.82,.18,7.8,3.6,16.47,5.51,25.05,5.51,6.46,0,12.84-1.05,18.94-3.12,.2-.07,.41-.11,.63-.11,.84,0,1.58,.53,1.85,1.33,.17,.49,.13,1.02-.1,1.49s-.63,.82-1.13,.99c-6.51,2.21-13.31,3.32-20.2,3.32Z"/><path class="e" d="M24.06,112.5c-.46,0-.9-.16-1.25-.45-5.73-4.77-10.55-10.5-14.32-17.02C.57,81.31-1.92,65.24,1.49,49.76c3.38-15.37,12.27-28.85,25.01-37.95l.94-.67-6.14-1.22c-1.06-.21-1.75-1.24-1.54-2.3,.18-.91,.99-1.58,1.92-1.58,.13,0,.25,.01,.38,.04l10.98,2.17c.55,.11,1.03,.45,1.31,.94,.28,.49,.34,1.07,.16,1.61l-3.61,10.59c-.27,.79-1.01,1.33-1.85,1.33-.21,0-.43-.04-.63-.11-.5-.17-.89-.52-1.12-.99-.23-.47-.26-1-.1-1.49l1.82-5.34-1.29,.97C3.63,33.77-3.18,67,11.88,93.07c3.53,6.12,8.05,11.49,13.43,15.97,.83,.69,.94,1.92,.25,2.75-.37,.45-.92,.71-1.51,.71h0Z"/><path class="e" d="M105.03,120.65c-.13,0-.25-.01-.38-.04l-10.98-2.17c-.55-.11-1.03-.45-1.31-.94-.28-.49-.34-1.07-.16-1.6l3.61-10.59c.27-.79,1.01-1.33,1.85-1.33,.21,0,.43,.04,.63,.11,.49,.17,.89,.52,1.12,.99,.23,.47,.26,1,.1,1.49l-1.82,5.34,1.29-.97c24.08-18,30.9-51.24,15.84-77.31-7.23-12.52-18.76-21.96-32.46-26.58-.5-.17-.9-.52-1.13-.98-.23-.47-.27-1-.1-1.49,.27-.8,1.01-1.33,1.86-1.33,.21,0,.42,.04,.62,.1,14.6,4.93,26.89,14.99,34.59,28.33,7.92,13.72,10.4,29.8,7,45.27-3.38,15.37-12.26,28.85-25.01,37.95l-.94,.67,6.14,1.21c1.06,.21,1.75,1.24,1.54,2.3-.18,.91-.99,1.58-1.92,1.58Z"/></g></g></g></svg>