<?xml version="1.0" encoding="UTF-8"?><svg xmlns="http://www.w3.org/2000/svg" viewBox="0 0 150.37 97.97"><defs><style>.d{fill:#fff;}.e{fill:#7be3ff;}.f{fill:#009aef;}</style></defs><g id="a"/><g id="b"><g id="c"><g><path class="f" d="M4.44,97.97c-.59,0-1.1-.38-1.25-.93-2.12-7.06-3.19-14.39-3.19-21.79C0,55.14,7.82,36.25,22.02,22.05,36.22,7.85,55.1,.03,75.19,.03s38.99,7.82,53.17,22.02c14.2,14.2,22.02,33.09,22.02,53.19,0,7.37-1.07,14.7-3.18,21.78-.18,.56-.7,.95-1.28,.95H4.44ZM75.18,2.67C35.17,2.67,2.61,35.23,2.61,75.24c0,6.59,.91,13.21,2.7,19.7l.11,.39H144.92l.11-.39c1.79-6.37,2.7-12.99,2.7-19.67C147.73,35.24,115.19,2.67,75.18,2.67Z"/><path class="f" d="M58.68,20.77c-.57,0-1.08-.37-1.25-.9l-4.87-14.99c-.11-.34-.09-.7,.08-.99,.17-.33,.46-.57,.81-.68,7.08-2.13,14.39-3.21,21.74-3.21s14.76,1.08,21.74,3.22c.24,.08,.58,.26,.8,.67,.16,.31,.19,.69,.09,1l-4.87,14.96c-.18,.55-.68,.91-1.26,.91-.12,0-.25-.02-.37-.05-5.2-1.55-10.63-2.33-16.12-2.33s-10.92,.79-16.13,2.34c-.16,.07-.26,.07-.37,.07Z"/><path class="e" d="M75.18,2.67c-6.47,0-12.91,.86-19.14,2.55l-.54,.15,4.06,12.48,.49-.13c4.83-1.3,9.92-1.96,15.13-1.96s10.16,.66,15.16,1.96l.48,.13,4.06-12.48-.54-.15c-6.12-1.69-12.57-2.55-19.17-2.55Z"/><path class="f" d="M126.29,48.78c-.49,0-.94-.26-1.17-.68-5.28-9.68-13.17-17.57-22.82-22.82-.63-.35-.86-1.11-.55-1.77l7.15-14.02c.16-.31,.45-.55,.8-.66,.13-.04,.25-.06,.38-.06,.22,0,.44,.05,.64,.15,13.07,7.04,23.7,17.68,30.73,30.77,.17,.3,.2,.66,.09,1-.11,.33-.36,.63-.68,.82l-13.98,7.14c-.18,.08-.39,.13-.59,.13h0Z"/><path class="d" d="M104.71,23.58l.43,.25c8.82,5.15,16.23,12.57,21.43,21.43l.25,.43,11.68-5.94-.28-.48c-6.45-11.28-15.81-20.65-27.09-27.09l-.48-.28-5.94,11.68Z"/><path class="f" d="M129.25,97.97c-.42,0-.81-.2-1.05-.52-.25-.34-.33-.79-.23-1.18,1.62-5.51,4.03-15.65,4.03-20.99s-.79-10.92-2.33-16.13c-.2-.68,.19-1.41,.86-1.63l14.96-4.87c.14-.05,.27-.07,.41-.07,.21,0,.41,.05,.58,.15,.35,.2,.58,.47,.68,.81,2.11,7.04,3.18,14.36,3.18,21.74s-1.07,14.7-3.18,21.74c-.18,.55-.69,.95-1.25,.95h-16.65Z"/><path class="e" d="M132.56,59.6l.13,.48c1.3,5.01,1.96,10.11,1.96,15.16,0,6.12-2.65,16.38-3.47,19.38l-.18,.67h13.93l.11-.39c1.79-6.34,2.7-12.96,2.7-19.67s-.86-12.88-2.55-19.17l-.15-.54-12.48,4.06Z"/><path class="f" d="M24.08,48.78c-.21,0-.39-.05-.57-.15l-14.02-7.16c-.31-.16-.55-.45-.66-.8-.13-.43-.02-.79,.09-1.02,7.01-13.07,17.64-23.71,30.74-30.76,.18-.1,.38-.15,.59-.15,.14,0,.28,.02,.41,.07,.33,.11,.63,.36,.82,.68l7.14,14.01c.33,.63,.09,1.41-.55,1.76-9.68,5.28-17.57,13.17-22.82,22.82-.23,.44-.68,.71-1.17,.71Z"/><path class="d" d="M39.24,12.21c-11.29,6.43-20.66,15.8-27.09,27.09l-.28,.48,11.68,5.94,.25-.43c5.2-8.89,12.61-16.3,21.43-21.43l.43-.25-5.94-11.68-.48,.28Z"/><path class="f" d="M4.43,97.97c-.59,0-1.1-.38-1.24-.93-2.12-7.06-3.19-14.38-3.19-21.79s1.07-14.7,3.18-21.74c.08-.24,.26-.58,.67-.79,.19-.09,.41-.15,.63-.15,.13,0,.26,.02,.37,.06l14.96,4.87c.68,.22,1.06,.94,.86,1.63-1.55,5.2-2.33,10.63-2.33,16.12s2.31,15.77,3.97,20.83c.09,.21,.13,.39,.13,.54,0,.74-.59,1.35-1.32,1.35H4.43Z"/><path class="e" d="M5.19,56.11c-1.69,6.15-2.55,12.6-2.55,19.17-.03,6.53,.87,13.15,2.67,19.66l.11,.39h13.88l-.19-.68c-1.64-5.74-3.4-14.25-3.4-19.38s.66-10.3,1.96-15.16l.13-.49-12.45-4.06-.15,.54Z"/><circle class="f" cx="75.19" cy="75.24" r="11.44"/><circle class="e" cx="75.19" cy="75.27" r="8.8"/><path class="f" d="M65.13,77.7c-.2,0-.42-.06-.64-.18l-3.45-1.91c-.23-.11-.39-.28-.49-.48l-16.05-28.8c-.29-.51-.19-1.17,.22-1.59,.25-.25,.58-.39,.93-.39,.23,0,.46,.06,.66,.17l28.77,16.06c.23,.11,.39,.28,.49,.48l1.86,3.35c.17,.28,.24,.52,.24,.76,0,.73-.59,1.32-1.32,1.32h-.22c-.29-.03-.61-.06-.92-.06-2.36,0-4.57,.92-6.21,2.6-1.9,1.9-2.82,4.52-2.52,7.18,.06,.47-.17,.97-.59,1.27-.23,.13-.5,.21-.77,.21h0Zm-2.49-4.2l1.13,.62,.12-.74c.39-2.35,1.5-4.5,3.21-6.22,1.72-1.72,3.87-2.83,6.22-3.21l.74-.12-.62-1.13-24.4-13.6,13.6,24.4Z"/></g></g></g></svg>