<?xml version="1.0" encoding="UTF-8"?><svg xmlns="http://www.w3.org/2000/svg" viewBox="0 0 100.5 131.36"><defs><style>.d{fill:#7be3ff;}.e{fill:#009aef;}</style></defs><g id="a"/><g id="b"><g id="c"><g><path class="e" d="M50.25,47.65c-3.73,0-7.24-1.45-9.87-4.09-2.6-2.6-4.09-6.2-4.09-9.87s1.45-7.24,4.09-9.87,6.14-4.09,9.87-4.09,7.24,1.45,9.87,4.09,4.09,6.14,4.09,9.87c0,3.73-1.46,7.23-4.09,9.87-2.64,2.64-6.14,4.09-9.87,4.1Zm0-23.97c-2.67,0-5.18,1.04-7.07,2.93-1.89,1.89-2.93,4.4-2.93,7.08s1.04,5.19,2.93,7.08c1.86,1.86,4.44,2.93,7.07,2.93s5.22-1.07,7.08-2.93c1.89-1.89,2.93-4.4,2.93-7.08,0-2.67-1.04-5.18-2.93-7.07-1.85-1.85-4.3-2.89-6.91-2.93h-.17Z"/><path class="e" d="M50.25,47.65c-3.73,0-7.24-1.45-9.87-4.09-2.6-2.6-4.09-6.2-4.09-9.87s1.45-7.24,4.09-9.87,6.14-4.09,9.87-4.09,7.24,1.45,9.87,4.09,4.09,6.14,4.09,9.87c0,3.73-1.46,7.23-4.09,9.87-2.64,2.64-6.14,4.09-9.87,4.1Zm0-23.97c-2.67,0-5.18,1.04-7.07,2.93-1.89,1.89-2.93,4.4-2.93,7.08s1.04,5.19,2.93,7.08c1.86,1.86,4.44,2.93,7.07,2.93s5.22-1.07,7.08-2.93c1.89-1.89,2.93-4.4,2.93-7.08,0-2.67-1.04-5.18-2.93-7.07-1.85-1.85-4.3-2.89-6.91-2.93h-.17Z"/><circle class="d" cx="50.25" cy="33.7" r="10.92"/><path class="e" d="M50.25,122.46c-10.65,0-20.68-1.44-28.23-4.05-10.55-3.63-12.77-8.19-12.77-11.37,0-6.74,10.93-14.08,35.34-15.28h0c.84,0,1.5,.4,1.84,1.05l3.81,7.22,3.81-7.23c.34-.65,1.01-1.06,1.74-1.06,17.12,.84,35.44,5.98,35.44,15.28,0,3.18-2.21,7.74-12.77,11.37-7.56,2.61-17.58,4.06-28.23,4.06h0Z"/><path class="e" d="M50.25,106.26c-.74,0-1.41-.4-1.75-1.05l-5.56-10.55L20.16,51.47l-.05-.11c-5.95-10.69-5.8-23.83,.37-34.33C26.66,6.53,38.07,0,50.25,0s23.59,6.53,29.76,17.03c6.17,10.5,6.33,23.64,.4,34.29l-.09,.18-28.33,53.71c-.34,.65-1.01,1.05-1.75,1.05Zm0-102.33c-10.83,0-20.95,5.81-26.4,15.17-5.46,9.36-5.53,21.02-.2,30.45,.04,.07,.07,.13,.1,.2l26.51,50.29,26.48-50.23c.06-.12,.09-.19,.13-.26,5.33-9.43,5.26-21.09-.2-30.45S61.08,3.93,50.25,3.93Zm0,43.71c-3.73,0-7.24-1.45-9.87-4.09-2.64-2.64-4.09-6.14-4.09-9.87s1.45-7.24,4.09-9.88c2.64-2.64,6.14-4.09,9.87-4.09s7.24,1.45,9.87,4.09,4.09,6.14,4.09,9.87c0,3.73-1.45,7.23-4.09,9.87-2.53,2.53-5.87,3.98-9.43,4.09h-.44Zm0-23.97c-2.67,0-5.19,1.04-7.08,2.93-1.89,1.89-2.93,4.4-2.93,7.08s1.04,5.19,2.93,7.08c1.86,1.86,4.44,2.93,7.08,2.93s5.21-1.07,7.08-2.93c1.89-1.89,2.93-4.4,2.93-7.08,0-2.67-1.05-5.18-2.94-7.07-1.71-1.71-3.94-2.73-6.33-2.9v-.03h-.73Z"/><path class="e" d="M50.25,131.36c-13.15,0-25.52-1.91-34.82-5.38-9.95-3.69-15.43-8.84-15.43-14.5,0-3.73,2.35-9.15,13.56-13.79,8.1-3.35,19.12-5.47,31.03-5.98h0c.83,0,1.5,.42,1.84,1.09l3.82,7.23,3.8-7.21c.34-.69,1.02-1.11,1.77-1.11,11.99,.51,23.01,2.63,31.11,5.98,11.21,4.63,13.56,10.06,13.56,13.79,0,5.68-5.48,10.83-15.43,14.5-9.3,3.47-21.66,5.38-34.81,5.38Zm-7.22-35.6c-21.55,1.21-39.08,8.27-39.08,15.72,0,3.82,4.68,7.76,12.85,10.81,8.93,3.3,20.81,5.11,33.45,5.11s24.52-1.81,33.45-5.11c8.17-3.05,12.85-6.99,12.85-10.81,0-7.45-17.53-14.5-39.08-15.72l-.47-.03-5,9.46c-.34,.65-1.01,1.06-1.75,1.06s-1.41-.4-1.75-1.06l-5-9.46-.47,.03Z"/><path class="d" d="M43.06,95.81c-18.44,1.2-29.85,6.76-29.85,11.22,0,5.41,15.84,11.46,37.04,11.46s37.04-6.05,37.04-11.46c0-4.47-11.41-10.03-29.85-11.22l-.47-.03-4.98,9.43c-.34,.65-1.01,1.06-1.75,1.06s-1.41-.4-1.75-1.05l-4.97-9.43-.47,.03Z"/></g></g></g></svg>