<?xml version="1.0" encoding="UTF-8"?><svg xmlns="http://www.w3.org/2000/svg" viewBox="0 0 111.04 121.31"><defs><style>.d{fill:#fff;}.e{fill:#7be3ff;}.f{fill:#009aef;}</style></defs><g id="a"/><g id="b"><g id="c"><g><path class="f" d="M27.5,121.31c-.09,0-.19,0-.28-.03-.5-.11-.89-.5-.99-1l-4.24-20.21-20.6,1.49c-.56,0-1-.26-1.23-.68-.24-.44-.2-.99,.11-1.4l16.15-21.45-.94-.57c-2.51-1.53-4.08-4.31-4.09-7.25v-7.17c0-1.03-.27-2.05-.79-2.94l-3.59-6.21c-1.51-2.62-1.51-5.87,0-8.49l3.58-6.21c.52-.9,.79-1.91,.79-2.95v-7.17c0-3.02,1.63-5.84,4.25-7.36l6.21-3.58c.89-.52,1.64-1.26,2.16-2.16l3.58-6.21c1.51-2.61,4.33-4.24,7.36-4.25h7.17c1.03,0,2.05-.27,2.94-.79l6.21-3.59c1.29-.74,2.76-1.13,4.25-1.13s2.96,.39,4.25,1.13l6.21,3.58c.89,.52,1.91,.79,2.94,.79h7.17c3.02,0,5.84,1.63,7.36,4.25l3.58,6.21c.52,.89,1.26,1.64,2.16,2.16l6.21,3.58c2.62,1.51,4.24,4.33,4.25,7.36v7.16c0,1.04,.27,2.05,.79,2.95l3.58,6.21c1.51,2.62,1.51,5.87,0,8.49l-3.58,6.21c-.51,.89-.79,1.91-.79,2.94v7.17c0,2.94-1.57,5.72-4.09,7.25l-.94,.57,16.17,21.46c.31,.41,.35,.96,.1,1.41-.23,.42-.68,.68-1.16,.68l-20.67-1.51-4.24,20.21c-.1,.5-.49,.89-.99,1-.09,.02-.19,.03-.28,.03-.41,0-.79-.19-1.04-.52l-18.79-24.94-3.94,2.28c-1.29,.74-2.76,1.13-4.25,1.13s-2.96-.39-4.25-1.13l-3.93-2.27-18.79,24.94c-.24,.33-.63,.52-1.04,.52Z"/><path class="e" d="M68.91,93.75c-.56,0-1.12,.09-1.66,.25l-1.38,.41,16.98,22.53,3.89-18.52c.13-.6,.67-1.03,1.29-1.03l18.95,1.37-14.64-19.43-3.15,1.82c-.89,.52-1.64,1.26-2.16,2.16l-3.59,6.21c-1.51,2.61-4.33,4.24-7.36,4.25h-7.17Z"/><path class="e" d="M23.02,97.39c.62,0,1.16,.44,1.29,1.04l3.88,18.51,16.97-22.52-1.37-.41c-.54-.16-1.1-.25-1.67-.25h-7.17c-3.02,0-5.84-1.63-7.36-4.25l-3.58-6.21c-.52-.89-1.26-1.64-2.16-2.16l-3.15-1.82-14.64,19.43,18.88-1.37h.08Z"/><path class="d" d="M34.95,8.11c-2.1,0-4.05,1.13-5.1,2.94l-3.59,6.21c-.74,1.29-1.82,2.36-3.11,3.11l-6.21,3.58c-1.81,1.05-2.94,3.01-2.94,5.1v7.16c0,1.49-.39,2.96-1.14,4.25l-3.58,6.21c-1.05,1.82-1.05,4.07,0,5.89l3.58,6.21c.75,1.29,1.14,2.76,1.14,4.25v7.16c0,2.1,1.13,4.05,2.94,5.1l6.21,3.59c1.29,.74,2.36,1.82,3.11,3.11l3.58,6.21c1.05,1.81,3.01,2.94,5.1,2.94h7.17c1.49,0,2.96,.39,4.25,1.14l6.21,3.58c.89,.51,1.91,.79,2.95,.79s2.05-.27,2.94-.79l6.21-3.57c1.29-.74,2.76-1.14,4.25-1.14h7.17c2.1,0,4.05-1.13,5.1-2.94l3.59-6.21c.74-1.29,1.82-2.36,3.11-3.11l6.21-3.58c1.81-1.05,2.94-3,2.95-5.1v-7.17c0-1.49,.39-2.96,1.14-4.25l3.58-6.21c1.04-1.82,1.04-4.07,0-5.89l-3.59-6.21c-.74-1.29-1.14-2.76-1.14-4.25v-7.17c0-2.1-1.13-4.05-2.94-5.1l-6.21-3.58c-1.29-.75-2.36-1.82-3.11-3.11l-3.58-6.21c-1.05-1.81-3-2.94-5.1-2.94h-7.17c-1.49,0-2.96-.39-4.25-1.14l-6.21-3.58c-.9-.52-1.91-.79-2.95-.79s-2.05,.27-2.94,.79l-6.21,3.58c-1.29,.74-2.76,1.14-4.25,1.14h-7.17Z"/><path class="f" d="M70.05,71.55c-.16,0-.33-.04-.47-.12l-14.03-7.24-14.03,7.24c-.15,.08-.31,.12-.47,.12-.22,0-.43-.07-.6-.2-.32-.23-.47-.61-.41-.99l2.57-15.58-11.23-11.1c-.28-.28-.38-.68-.26-1.05,.12-.37,.43-.64,.82-.7l15.61-2.38,7.09-14.11c.17-.34,.53-.56,.92-.56s.74,.22,.92,.56l7.09,14.11,15.72,2.4c.32,.07,.6,.33,.71,.68,.12,.37,.02,.77-.25,1.05l-11.23,11.1,2.56,15.58c.06,.38-.09,.76-.41,.99-.18,.13-.38,.2-.6,.2Z"/><path class="e" d="M55.55,62.01c.16,0,.33,.04,.47,.11l12.69,6.56-2.31-14.09c-.05-.33,.05-.66,.29-.9l10.15-10.05-14.12-2.15c-.32-.05-.61-.26-.76-.55l-6.41-12.77-6.41,12.76c-.15,.3-.43,.5-.76,.55l-14.12,2.16,10.15,10.04c.24,.23,.34,.57,.29,.9l-2.3,14.09,12.67-6.55c.14-.07,.31-.11,.47-.11Z"/></g></g></g></svg>