<?xml version="1.0" encoding="UTF-8"?>
<svg id="Layer_2" data-name="Layer 2" xmlns="http://www.w3.org/2000/svg" viewBox="0 0 693.87 452.05">
  <defs>
    <style>
      .cls-1 {
        fill: #f8caa4;
      }

      .cls-2 {
        fill: #e89880;
      }

      .cls-3 {
        fill: #fff;
      }

      .cls-4 {
        fill: #7be3ff;
      }

      .cls-5 {
        fill: #009aef;
      }

      .cls-6 {
        fill: #e27d6a;
      }

      .cls-7 {
        fill: #353535;
      }
    </style>
  </defs>
  <g id="layer">
    <g>
      <rect class="cls-5" x="175.13" y="65.51" width="281.28" height="384.66"/>
      <rect class="cls-4" x="187.12" y="75.89" width="257.31" height="363.68"/>
      <g>
        <g>
          <path class="cls-5" d="M40.32,325.24s9.8-88.19,18.26-92.37,17.79,66.95,19.4,92.37l-7.72,76.28h-29.93v-76.28Z"/>
          <path class="cls-5" d="M15,392.18H102.17v31.36c0,14.48-11.75,26.23-26.23,26.23H41.23c-14.48,0-26.23-11.75-26.23-26.23v-31.36h0Z"/>
          <path class="cls-4" d="M91.92,392.18s15.87-80.14,7.9-110.74c-.56-2.15-3.44-2.52-4.51-.58-6.65,12.04-24.23,48-36.73,111.33h33.33Z"/>
          <path class="cls-4" d="M25.14,392.18s-15.72-86.42-8.01-120.09c.55-2.39,3.77-2.81,4.87-.62,6.83,13.58,24.13,52.6,36.48,120.71H25.14Z"/>
        </g>
        <path class="cls-5" d="M269.84,65.51v13.1c0,7.24,5.86,13.1,13.09,13.1h70.32c7.23,0,13.09-5.87,13.09-13.1v-13.1h-96.5Z"/>
        <g>
          <rect class="cls-3" x="219.25" y="386.8" width="35.79" height="3.62"/>
          <rect class="cls-3" x="263.33" y="386.8" width="35.79" height="3.62"/>
          <rect class="cls-3" x="219.25" y="394.84" width="49.64" height="3.62"/>
        </g>
        <g>
          <path class="cls-3" d="M418.69,211.03h-46.54v-46.54h46.54v46.54Zm-44.35-2.19h42.15v-42.15h-42.15v42.15Z"/>
          <path class="cls-5" d="M396.58,201.68c-.98,0-1.91-.43-2.53-1.19l-14.36-17.37c-1.16-1.4-.96-3.47,.44-4.63,1.4-1.16,3.47-.96,4.63,.44l11.39,13.78,20.6-34.58c.93-1.56,2.95-2.07,4.51-1.14,1.56,.93,2.07,2.95,1.14,4.51l-22.99,38.59c-.55,.92-1.51,1.51-2.57,1.6-.08,0-.17,0-.25,0Z"/>
        </g>
        <g>
          <path class="cls-3" d="M419.05,280.55h-46.54v-46.54h46.54v46.54Zm-44.35-2.19h42.15v-42.15h-42.15v42.15Z"/>
          <path class="cls-5" d="M396.94,271.2c-.98,0-1.91-.43-2.53-1.19l-14.36-17.37c-1.16-1.4-.96-3.47,.44-4.63,1.4-1.16,3.47-.96,4.63,.44l11.39,13.78,20.6-34.58c.93-1.56,2.95-2.07,4.51-1.14,1.56,.93,2.07,2.95,1.14,4.51l-22.99,38.59c-.55,.92-1.51,1.51-2.57,1.6-.08,0-.17,0-.25,0Z"/>
        </g>
        <g>
          <path class="cls-3" d="M419.05,350.58h-46.54v-46.54h46.54v46.54Zm-44.35-2.19h42.15v-42.15h-42.15v42.15Z"/>
          <path class="cls-5" d="M396.94,341.23c-.98,0-1.91-.43-2.53-1.19l-14.36-17.37c-1.16-1.4-.96-3.47,.44-4.63,1.4-1.16,3.47-.96,4.63,.44l11.39,13.78,20.6-34.58c.93-1.56,2.95-2.07,4.51-1.14,1.56,.93,2.07,2.95,1.14,4.51l-22.99,38.59c-.55,.92-1.51,1.51-2.57,1.6-.08,0-.17,0-.25,0Z"/>
        </g>
        <g>
          <g>
            <rect class="cls-3" x="219.25" y="143.15" width="116.23" height="5.1"/>
            <rect class="cls-3" x="219.25" y="165.95" width="107.11" height="5.1"/>
            <g>
              <rect class="cls-3" x="303.8" y="154.55" width="31.68" height="5.1"/>
              <rect class="cls-3" x="219.25" y="154.55" width="75.76" height="5.1"/>
            </g>
          </g>
          <g>
            <rect class="cls-3" x="220.21" y="221.31" width="122.13" height="5.1"/>
            <rect class="cls-3" x="220.21" y="244.11" width="112.56" height="5.1"/>
            <g>
              <rect class="cls-3" x="309.06" y="232.71" width="33.29" height="5.1"/>
              <rect class="cls-3" x="220.21" y="232.71" width="79.62" height="5.1"/>
            </g>
          </g>
          <g>
            <rect class="cls-3" x="220.21" y="300.04" width="122.13" height="5.1"/>
            <rect class="cls-3" x="220.21" y="322.84" width="112.56" height="5.1"/>
            <g>
              <rect class="cls-3" x="309.06" y="311.44" width="33.29" height="5.1"/>
              <rect class="cls-3" x="220.21" y="311.44" width="79.62" height="5.1"/>
            </g>
          </g>
        </g>
        <g>
          <path d="M597.68,2.54c-8.64-4.48-15.55-1.66-15.55-1.66-26.42-3.1-34.13,27.71-33.77,38.31,.35,10.6,1.57,21.99-10.23,35.76-34.08,39.79,37.3,41.54,37.3,41.54,.6-31.79,38.71-20.19,37.04-16.97,48.85,11.72,4.86-86.8-14.78-96.99Z"/>
          <path class="cls-2" d="M495.76,128.7s-4.65-7.07-8.39-7.21c-3.74-.14-10.68-2.08-10.12-.69,.55,1.39,4.85,1.53,5.27,2.36,.42,.83-6.38,2.08-8.32,2.22-1.94,.14-6.52,0-6.38,.97,.14,.97,8.25,4.99,13.97,4.44,5.72-.55,12.8,1.66,12.8,1.66l1.18-3.75Z"/>
          <path class="cls-4" d="M562.96,130.99s-2.53,5-7.11,10.75c-5.52,6.92-14.03,14.9-24.72,16.48-5.11,.75-10.1-.35-14.69-2.38-.01,0-.02,0-.02,0-12.98-5.76-22.74-19.02-22.74-19.02-2.29-6.24,1.46-10.47,1.46-10.47,0,0,26.21,5.9,28.71,4.65,2.5-1.25,17.85-35.3,20.61-40.97,5.88-12.06,15.2-15.51,15.2-15.51l3.3,56.48Z"/>
          <path d="M660.76,413.96s8,7.3,6.44,12.49c-1.56,5.19-8.78,8.64-9.75,14.98-.98,6.34-4.88,9.8-8.39,9.8h-16.74s-2.58-4.46,3.66-5.81c6.24-1.34,8.6-8.79,8.21-15.71-.39-6.92,.59-16.14,.59-16.14l13.27-3.07,2.73,3.46Z"/>
          <path d="M593.06,417.05s2.88,30.92-.63,32.65l-44.94-.09s0-5.19,7.22-6.34c7.22-1.15,19.9-5.38,22.05-14.79,2.15-9.41,16.31-11.43,16.31-11.43Z"/>
          <path class="cls-4" d="M627.63,110.13s.67,9.44,0,20.77c-.45,7.51-8.04,17.57-9.12,20.06-2.7,6.24-5.75,7.26-5.75,7.26l-23.6,5.78-8.3,2.03-26.16-7.81s-11.92-33.26-7.13-51.99c4.78-18.72,12.1-31.73,12.1-31.73,0,0,17.74-7,49.15-1.77l18.82,37.4Z"/>
          <path class="cls-1" d="M620.72,133.97c-.45,7.51-1.14,14.51-2.21,16.99-2.7,6.24-5.75,7.26-5.75,7.26l-23.6,5.78-10.25-3.01s34.21-5.18,30.42-34.62l11.39,7.6Z"/>
          <path class="cls-7" d="M556.36,163.27s-12.96,40.33-13.79,54.06c-.83,13.73,24.77,195.06,25.8,201.39,.97,5.96,8.38,9.77,8.38,9.77,0,0,3.41,2.01,8.27,.64,6.74-1.9,8.88-4.18,8.88-4.18,0,0,10.09-129.32,3.84-175.52-6.24-46.2-6.31-86.15-6.31-86.15h-35.06Z"/>
          <path d="M611.26,162.07s19.76,26.52,21.61,44.44c1.84,17.93,2.89,80.9,6.82,98.37,3.93,17.48,18.35,51.11,18.35,105.62,0,0-1.5,3.12-6.13,4.79-1.48,.53-3.46,1.05-5.39,1.49-3.82,.88-7.73-.99-9.48-4.5-9.75-19.63-40.81-82.95-42.4-96.1-1.13-9.3-10.93-70.86-32.33-106.99-5.14-8.67,3.15-43.16,3.15-43.16l45.8-3.97Z"/>
          <path class="cls-5" d="M554.29,157.04s5.2,4.11,15.54,4.32c12.34,.25,42.93-3.15,42.93-3.15,0,0,1.36,3.8,1.3,7.81,0,0-37.35,9.42-59,1.38,0,0-2.79-5.25-.77-10.36Z"/>
          <path class="cls-3" d="M566.87,172c-3.11,0-5.63-2.86-5.63-6.37s2.53-6.37,5.63-6.37,5.63,2.86,5.63,6.37-2.53,6.37-5.63,6.37Zm0-10.88c-2.08,0-3.77,2.02-3.77,4.51s1.69,4.51,3.77,4.51,3.76-2.02,3.76-4.51-1.69-4.51-3.76-4.51Z"/>
          <path class="cls-5" d="M649,167.79l-30.33,26.41c-2.19,1.91-5.52,1.68-7.42-.51l-38.7-44.45c-1.91-2.19-1.68-5.52,.51-7.42l30.33-26.41c2.19-1.91,5.52-1.68,7.42,.51l38.7,44.45c1.91,2.19,1.68,5.52-.51,7.42Z"/>
          <path class="cls-2" d="M604.12,164.46c-.43,.11-16.11,1.96-16.11,5.2,0,3.75,4.6,8.77,8.93,8.53,1.76-.1,9.85-7.54,9.85-7.54l-2.66-6.19Z"/>
          <path class="cls-2" d="M596.07,71.02c-1.78-4.33-2.83-10.92-2.8-19.07l-1.18,.23-19.92,3.94s.45,6.27,.47,12.17c0,.05,0,.1,0,.15,.02,5.13-3.47,10.28,4.76,12.31,2.54,.63,22.42-.65,18.67-9.73Z"/>
          <path class="cls-6" d="M572.17,56.12s.45,6.27,.47,12.17c11.15-.31,17.04-10.48,19.45-16.12l-19.92,3.94Z"/>
          <path class="cls-2" d="M568.45,61.71s26.37,.44,26.39-15.99c.02-16.43,3.43-27.44-13.4-28.41-16.84-.97-20.12,5.29-21.46,10.77-1.34,5.48,1.61,33.09,8.47,33.63Z"/>
          <path d="M569.42,16.91s7.22,19.27,18.3,22.12c11.08,2.85,15.89-.12,15.89-.12,0,0-8.5-6.75-10.26-18.54,0,0-18.48-12.64-23.93-3.46Z"/>
          <path d="M571.21,18.48s-5.35,2-7.56,5.91c-2.15,3.82-3.99,8.88-3.57,15.08,0,0-5.44-13.1,.67-20.51,6.48-7.86,10.45-.48,10.45-.48Z"/>
          <path class="cls-2" d="M604.12,164.46s-3.76-1.21-6.27-.86c-2.51,.35-4.37-.05-4.37,.65s3.24,1.03,3.93,1.37c.69,.34,6.71-1.17,6.71-1.17Z"/>
          <path class="cls-4" d="M608.81,72.73s18.72,1.31,25.9,18.76c7.18,17.44,20.79,46.73,20.79,51.66s-7.61,20.12-48.45,28.85c0,0-4.22-4.44-3.97-7.96,0,0,25.5-21.9,25.43-24.46-.13-4.84-4.18-11.23-26.57-33.63-6.09-6.09,6.87-33.22,6.87-33.22Z"/>
        </g>
        <path d="M693.04,452.05H156.45c-.46,0-.83-.37-.83-.83s.37-.83,.83-.83H693.04c.46,0,.83,.37,.83,.83s-.37,.83-.83,.83Z"/>
        <path d="M116.94,452.05H.83c-.46,0-.83-.37-.83-.83s.37-.83,.83-.83H116.94c.46,0,.83,.37,.83,.83s-.37,.83-.83,.83Z"/>
      </g>
    </g>
  </g>
</svg>