<?xml version="1.0" encoding="UTF-8"?><svg id="Layer_2" xmlns="http://www.w3.org/2000/svg" viewBox="0 0 127.64 127.64"><defs><style>.cls-1{fill:#fff;}.cls-2{fill:#009aef;}</style></defs><g id="layer"><circle class="cls-2" cx="63.82" cy="63.82" r="63.82"/><g><path class="cls-1" d="M81.05,31.48h-9.61v-4.82c0-.67-.52-1.19-1.19-1.19h-12.86c-.67,0-1.19,.52-1.19,1.19v4.82h-9.61c-.65,0-1.19,.54-1.19,1.19v61.03c0,.67,.54,1.19,1.19,1.19h34.46c.65,0,1.19-.52,1.19-1.19V32.67c0-.65-.54-1.19-1.19-1.19h0Zm-1.19,61.03H47.78V33.86h9.61c.66,0,1.19-.52,1.19-1.19v-4.82h10.48v4.82c0,.67,.53,1.19,1.19,1.19h9.61v58.64h0Z"/><path class="cls-1" d="M65.65,48c.06-.6-.31-1.14-.89-1.29-.57-.14-1.17,.15-1.39,.69l-8.64,20.73c-.15,.37-.11,.79,.11,1.12,.22,.33,.6,.54,.99,.54h6.72l-2.93,14.37c-.12,.58,.21,1.17,.77,1.37,.13,.04,.26,.06,.39,.06,.44,0,.86-.24,1.06-.65l11.05-21.86c.19-.37,.17-.81-.05-1.16-.22-.36-.61-.57-1.01-.57h-7.63l1.46-13.35Z"/></g></g></svg>