<?xml version="1.0" encoding="UTF-8"?><svg id="Layer_2" xmlns="http://www.w3.org/2000/svg" viewBox="0 0 127.64 127.64"><defs><style>.cls-1{fill:#fff;}.cls-2{fill:#009aef;}</style></defs><g id="layer"><circle class="cls-2" cx="63.82" cy="63.82" r="63.82"/><g><path class="cls-1" d="M45.68,40.64h16.58c.67,0,1.22-.55,1.22-1.22s-.55-1.22-1.22-1.22h-16.58c-.67,0-1.22,.55-1.22,1.22s.55,1.22,1.22,1.22h0Z"/><path class="cls-1" d="M74.96,38.2h-4.88c-.67,0-1.22,.55-1.22,1.22s.55,1.22,1.22,1.22h4.88c.67,0,1.22-.55,1.22-1.22s-.55-1.22-1.22-1.22Z"/><path class="cls-1" d="M45.68,49.18h16.58c.67,0,1.22-.55,1.22-1.22s-.55-1.22-1.22-1.22h-16.58c-.67,0-1.22,.55-1.22,1.22s.55,1.22,1.22,1.22h0Z"/><path class="cls-1" d="M74.96,46.74h-4.88c-.67,0-1.22,.55-1.22,1.22s.55,1.22,1.22,1.22h4.88c.67,0,1.22-.55,1.22-1.22s-.55-1.22-1.22-1.22Z"/><path class="cls-1" d="M74.96,55.28h-29.28c-.67,0-1.22,.55-1.22,1.22s.55,1.22,1.22,1.22h29.28c.67,0,1.22-.55,1.22-1.22s-.55-1.22-1.22-1.22Z"/><path class="cls-1" d="M45.68,66.26h16.58c.67,0,1.22-.55,1.22-1.22s-.55-1.22-1.22-1.22h-16.58c-.67,0-1.22,.55-1.22,1.22s.55,1.22,1.22,1.22h0Z"/><path class="cls-1" d="M74.96,63.82h-4.88c-.67,0-1.22,.55-1.22,1.22s.55,1.22,1.22,1.22h4.88c.67,0,1.22-.55,1.22-1.22s-.55-1.22-1.22-1.22Z"/><path class="cls-1" d="M45.68,74.8h16.58c.67,0,1.22-.55,1.22-1.22s-.55-1.22-1.22-1.22h-16.58c-.67,0-1.22,.55-1.22,1.22s.55,1.22,1.22,1.22h0Z"/><path class="cls-1" d="M74.96,72.36h-4.88c-.67,0-1.22,.55-1.22,1.22s.55,1.22,1.22,1.22h4.88c.67,0,1.22-.55,1.22-1.22s-.55-1.22-1.22-1.22Z"/><path class="cls-1" d="M74.96,80.9h-29.28c-.67,0-1.22,.55-1.22,1.22s.55,1.22,1.22,1.22h29.28c.67,0,1.22-.55,1.22-1.22s-.55-1.22-1.22-1.22Z"/><path class="cls-1" d="M87.16,28.44H46.9c-2.26,0-4.44,.9-6.04,2.5-1.6,1.6-2.5,3.77-2.5,6.04v61.01c0,.46,.25,.88,.66,1.09,.41,.21,.9,.17,1.27-.09l7.7-5.5,5.37,5.37c.23,.23,.54,.36,.86,.36s.63-.13,.86-.36l5.24-5.24,5.24,5.24h0c.23,.23,.54,.36,.86,.36s.63-.13,.86-.36l5.37-5.37,7.7,5.5c.21,.15,.45,.23,.71,.23,.19,0,.39-.05,.56-.13,.41-.21,.66-.63,.66-1.09V45.52h10.98c.32,0,.63-.13,.86-.36s.36-.54,.36-.86v-8.54c0-1.94-.77-3.8-2.15-5.17-1.37-1.37-3.23-2.14-5.17-2.15h0Zm-7.32,67.18l-6.61-4.72c-.48-.35-1.15-.29-1.57,.13l-5.24,5.24-5.24-5.24h0c-.23-.23-.54-.36-.86-.36s-.63,.13-.86,.36l-5.24,5.24-5.24-5.24h0c-.42-.42-1.09-.48-1.57-.13l-6.61,4.72V36.98c0-1.62,.65-3.17,1.79-4.31,1.14-1.14,2.69-1.79,4.31-1.79h34.82c-1.21,1.34-1.88,3.08-1.88,4.88v59.86Zm12.2-52.54h-9.76v-7.32c0-1.74,.93-3.35,2.44-4.23,1.51-.87,3.37-.87,4.88,0,1.51,.87,2.44,2.48,2.44,4.23v7.32Z"/></g></g></svg>