<?xml version="1.0" encoding="UTF-8"?><svg id="Layer_2" xmlns="http://www.w3.org/2000/svg" viewBox="0 0 127.64 127.64"><defs><style>.cls-1{fill:#fff;}.cls-2{fill:#009aef;}</style></defs><g id="layer"><circle class="cls-2" cx="63.82" cy="63.82" r="63.82"/><path class="cls-1" d="M60.86,31.84c1.68-1.56,4.27-1.59,5.99-.08,3.88,3.41,7.51,5.66,10.86,6.78,3.34,1.11,6.9,1.97,10.66,2.57,2.17,.34,3.77,2.22,3.77,4.42v27.06c0,5.27-2.53,10.21-6.8,13.29l-16.29,11.76c-3.13,2.26-7.35,2.26-10.47,0l-16.29-11.76c-4.27-3.08-6.8-8.03-6.8-13.29v-27.01c0-2.22,1.62-4.1,3.82-4.42,3.33-.49,6.87-1.36,10.62-2.61,3.61-1.2,7.05-3.25,10.3-6.13l.63-.57Zm4.02,2.16c-.57-.5-1.44-.49-2.01,.04l-.65,.59c-3.56,3.15-7.34,5.4-11.35,6.74-3.9,1.3-7.61,2.21-11.12,2.73-.73,.11-1.27,.74-1.27,1.47v27.01c0,4.31,2.07,8.35,5.56,10.88l16.29,11.76c2.08,1.51,4.9,1.51,6.98,0l16.29-11.76c3.49-2.52,5.56-6.57,5.56-10.88v-27.06c0-.73-.53-1.36-1.26-1.47-3.93-.62-7.64-1.52-11.14-2.68-3.77-1.26-7.72-3.72-11.89-7.37h0Zm13.43,22.81c.53,.55,.55,1.39,.09,1.97l-.13,.14-18.58,17.89c-.53,.51-1.35,.55-1.93,.12l-.14-.12-8.26-7.95c-.59-.57-.61-1.51-.04-2.11,.53-.55,1.37-.6,1.97-.16l.14,.12,7.22,6.95,17.54-16.89c.59-.57,1.54-.55,2.11,.04h0Z"/></g></svg>