<?xml version="1.0" encoding="UTF-8"?><svg id="Layer_2" xmlns="http://www.w3.org/2000/svg" viewBox="0 0 127.64 127.64"><defs><style>.cls-1{fill:#fff;}.cls-2{fill:#009aef;}</style></defs><g id="layer"><g><circle class="cls-2" cx="63.82" cy="63.82" r="63.82"/><g><path class="cls-1" d="M63.82,77.71c5.76,0,10.42-9.25,10.42-15.84s-4.66-11.94-10.42-11.94-10.42,5.35-10.42,11.94,4.66,15.84,10.42,15.84Zm0-25.47c4.47,0,8.1,4.32,8.1,9.63,0,5.66-4.08,13.53-8.1,13.53s-8.1-7.87-8.1-13.53c0-5.31,3.64-9.63,8.1-9.63Z"/><path class="cls-1" d="M46.45,47.61c4.48,0,8.1-6.94,8.1-11.88s-3.63-8.96-8.1-8.96-8.1,4.01-8.1,8.96,3.63,11.88,8.1,11.88Zm0-18.52c3.19,0,5.79,2.98,5.79,6.64,0,4.29-3.19,9.57-5.79,9.57s-5.79-5.27-5.79-9.57c0-3.66,2.6-6.64,5.79-6.64Z"/><path class="cls-1" d="M81.18,47.61c4.48,0,8.1-6.94,8.1-11.88s-3.63-8.96-8.1-8.96-8.1,4.01-8.1,8.96,3.63,11.88,8.1,11.88Zm0-18.52c3.19,0,5.79,2.98,5.79,6.64,0,4.29-3.19,9.57-5.79,9.57s-5.79-5.27-5.79-9.57c0-3.66,2.6-6.64,5.79-6.64Z"/><path class="cls-1" d="M51.2,63.82H29.14s-.03,0-.04,0c.41-5.61,1.38-7.71,1.73-8.07,.83-.65,5.05-2.14,8.89-3.28l5.39,3.85c.4,.29,.87,.43,1.35,.43s.94-.14,1.35-.43l5.39-3.85c.29,.09,.58,.17,.87,.26,.52-.69,1.09-1.32,1.71-1.89-1.71-.54-3-.91-3-.91l-6.3,4.5-6.3-4.5s-9.31,2.66-10.88,4.11c-1.66,1.52-2.27,6.62-2.49,9.69-.1,1.33,.99,2.41,2.36,2.41h22.44c-.17-.79-.3-1.56-.38-2.32h0Z"/><path class="cls-1" d="M87.49,49.93l-6.3,4.5-6.3-4.5s-1.3,.37-3,.91c.62,.57,1.19,1.2,1.71,1.89,.29-.09,.58-.18,.87-.26l5.39,3.85c.4,.29,.87,.43,1.35,.43s.94-.14,1.35-.43l5.39-3.85c3.84,1.15,8.06,2.64,8.89,3.29,.35,.35,1.31,2.44,1.73,8.07-.01,0-.02,0-.04,0h-22.06c-.08,.75-.21,1.53-.39,2.32h22.45c1.37,0,2.45-1.08,2.36-2.41-.22-3.07-.83-8.17-2.49-9.69-1.57-1.45-10.88-4.11-10.88-4.11h0Z"/><path class="cls-1" d="M86.06,85.31c-2.03-1.86-14.08-5.28-14.08-5.28l-8.16,5.79-8.16-5.79s-12.05,3.43-14.08,5.28c-2.14,1.95-2.93,8.51-3.22,12.46-.13,1.71,1.28,3.1,3.05,3.1h44.82c1.77,0,3.17-1.39,3.05-3.1-.29-3.95-1.07-10.51-3.22-12.46h0Zm.78,13c-.14,.15-.36,.24-.61,.24H41.41c-.25,0-.47-.09-.61-.24-.15-.16-.14-.32-.13-.37,.53-7.32,1.8-10.31,2.47-10.92,.98-.85,6.83-2.92,12.09-4.46l7.25,5.14c.4,.28,.87,.43,1.34,.43s.94-.14,1.34-.43l7.25-5.14c5.26,1.54,11.11,3.6,12.09,4.46,.67,.61,1.94,3.59,2.47,10.92,0,.05,.01,.21-.13,.37h0Z"/></g></g></g></svg>