<?xml version="1.0" encoding="UTF-8"?><svg id="Layer_2" xmlns="http://www.w3.org/2000/svg" viewBox="0 0 127.64 127.64"><defs><style>.cls-1{fill:#fff;}.cls-2{fill:#009aef;}</style></defs><g id="layer"><g><circle class="cls-2" cx="63.82" cy="63.82" r="63.82"/><path class="cls-1" d="M65.55,97.99c-18.84,0-34.17-15.33-34.17-34.17,0-9.13,3.55-17.71,10.01-24.16s15.03-10.01,24.16-10.01h0c10.57,0,20.37,4.77,26.9,13.1l.7,.89,.43-2.58c.12-.73,.75-1.26,1.49-1.26,.08,0,.17,0,.25,.02,.82,.14,1.38,.92,1.24,1.74l-1.05,6.22c-.07,.4-.29,.75-.61,.98-.26,.18-.56,.28-.88,.28-.08,0-.17,0-.25-.02l-6.22-1.05c-.4-.07-.75-.29-.98-.61-.23-.33-.33-.73-.26-1.13,.12-.73,.75-1.26,1.49-1.26,.08,0,.17,0,.26,.02l2.69,.45-.81-1.02c-5.95-7.48-14.84-11.76-24.38-11.76-17.18,0-31.15,13.98-31.15,31.15s13.97,31.15,31.15,31.15c11.26,0,21.68-6.11,27.19-15.94l.05-.1c.26-.47,.77-.77,1.32-.77,.25,0,.51,.07,.73,.19,.35,.2,.61,.52,.72,.9,.08,.3,.08,.6-.02,.89h-.18v.37c-6.05,10.78-17.46,17.46-29.81,17.46Zm31.52-23.9c-.63,0-1.2-.4-1.42-1-.14-.38-.12-.79,.05-1.15,.17-.36,.47-.64,.85-.78,.16-.06,.33-.09,.5-.09h0c.64,0,1.21,.4,1.43,1,.14,.38,.12,.79-.05,1.15-.17,.36-.48,.64-.85,.78-.17,.06-.34,.09-.51,.09Zm-15.83-4.34c-.13,0-.27-.02-.4-.05l-12.63-3.48c.54-.63,.85-1.44,.85-2.3v-.6l12.58,3.46c.8,.22,1.27,1.05,1.05,1.85-.18,.65-.78,1.11-1.45,1.11Zm-15.69-4.32c-.83,0-1.51-.68-1.51-1.51v-20.85c0-.83,.67-1.51,1.5-1.51h.06c.81,.03,1.45,.69,1.45,1.51v20.85c0,.83-.68,1.51-1.51,1.51Z"/></g></g></svg>