<?xml version="1.0" encoding="UTF-8"?><svg id="Layer_2" xmlns="http://www.w3.org/2000/svg" viewBox="0 0 127.64 127.64"><defs><style>.cls-1{fill:#fff;}.cls-2{fill:#009aef;}</style></defs><g id="layer"><g><circle class="cls-2" cx="63.82" cy="63.82" r="63.82"/><path class="cls-1" d="M89.64,79.09c-1.39,0-2.75,.39-3.93,1.13l-14.29-14.29c.95-1.24,1.57-2.71,1.77-4.27h9.34c.39,1.35,1.4,2.43,2.73,2.89,1.32,.47,2.79,.26,3.94-.55,1.15-.81,1.83-2.13,1.83-3.53s-.68-2.72-1.83-3.53c-1.15-.81-2.61-1.02-3.94-.55s-2.34,1.54-2.73,2.89h-9.34c-.21-1.55-.82-3.02-1.77-4.27l14.44-14.44c.76,.45,1.62,.69,2.5,.69,1.51,.01,2.94-.65,3.91-1.81,.97-1.16,1.37-2.69,1.09-4.17-.28-1.48-1.2-2.76-2.52-3.49-1.32-.73-2.9-.83-4.3-.27-1.4,.55-2.48,1.71-2.95,3.14-.46,1.43-.26,3,.55,4.27l-14.4,14.4c-1.24-.95-2.71-1.56-4.27-1.77v-9.28c1.37-.33,2.49-1.31,3.01-2.62,.52-1.31,.37-2.79-.4-3.97-.77-1.18-2.06-1.92-3.47-1.97-1.41-.06-2.75,.57-3.61,1.69-.86,1.12-1.12,2.58-.71,3.93,.41,1.35,1.46,2.41,2.8,2.85v9.38c-1.55,.21-3.02,.82-4.27,1.77l-14.44-14.44c1.33-2.14,1.49-4.81,.42-7.1-1.07-2.28-3.22-3.87-5.72-4.22-2.5-.35-5,.59-6.66,2.49-1.66,1.9-2.24,4.51-1.54,6.94,.69,2.43,2.56,4.34,4.97,5.08,2.41,.74,5.03,.22,6.97-1.4l14.33,14.33c-.95,1.24-1.57,2.71-1.77,4.27h-9.34c-.39-1.35-1.4-2.42-2.72-2.89-1.32-.46-2.78-.26-3.93,.55-1.14,.81-1.82,2.12-1.82,3.52s.68,2.71,1.82,3.52c1.14,.81,2.61,1.01,3.93,.55,1.32-.46,2.34-1.54,2.72-2.89h9.34c.21,1.55,.82,3.02,1.77,4.27l-14.6,14.6c-1.41-.86-3.15-.96-4.65-.29-1.5,.67-2.58,2.04-2.88,3.67-.3,1.62,.22,3.29,1.38,4.45,1.17,1.17,2.83,1.68,4.45,1.39,1.62-.3,2.99-1.37,3.67-2.88,.67-1.5,.57-3.24-.29-4.65l14.6-14.6c1.24,.95,2.71,1.57,4.27,1.77v10.72c-1.33,.44-2.36,1.49-2.77,2.83-.41,1.34-.15,2.79,.71,3.9,.85,1.11,2.19,1.73,3.59,1.68,1.4-.06,2.68-.78,3.45-1.96,.76-1.17,.91-2.64,.4-3.94-.51-1.3-1.63-2.27-2.99-2.6v-10.62c1.55-.21,3.02-.82,4.27-1.77l14.17,14.17c-4.06,4.61-.48,12.39,5.73,12.24,9.87-.35,9.89-14.58,0-14.93h0Zm-20.69-13.94c-6.33,6.03-15.37-3.01-9.34-9.34,6.37-6.01,15.36,2.98,9.34,9.34Zm17.72-6.62c.69,0,1.32,.38,1.67,.98,.34,.6,.34,1.34,0,1.94-.34,.6-.98,.97-1.67,.98-.69,0-1.32-.38-1.67-.98-.34-.6-.34-1.34,0-1.94,.34-.6,.98-.97,1.67-.98h0Zm1.69-24.91c.94,.01,1.8,.52,2.26,1.33,.47,.81,.47,1.81,0,2.62-.47,.81-1.33,1.32-2.26,1.33-.94-.01-1.8-.52-2.26-1.33-.47-.81-.47-1.81,0-2.62,.47-.81,1.33-1.32,2.26-1.33Zm-25.88,4.49c.01-.69,.38-1.32,.98-1.67,.6-.34,1.34-.34,1.93,0,.6,.34,.97,.98,.98,1.67,0,.69-.38,1.32-.98,1.67-.6,.34-1.34,.34-1.93,0-.6-.34-.97-.98-.98-1.67Zm-29.52-3.15c.02-1.81,.99-3.47,2.56-4.37,1.57-.9,3.5-.9,5.06,0,1.57,.9,2.54,2.56,2.56,4.37-.02,1.81-.99,3.47-2.56,4.37-1.57,.9-3.5,.9-5.06,0-1.57-.9-2.54-2.56-2.56-4.37h0Zm8.93,27.48c-.69,0-1.32-.38-1.67-.98-.34-.6-.34-1.34,0-1.94,.34-.6,.98-.97,1.67-.98,.69,0,1.33,.38,1.67,.98,.34,.6,.34,1.34,0,1.94-.34,.6-.98,.97-1.67,.98Zm-1.94,25.02h0c-.94-.01-1.8-.52-2.26-1.33-.47-.81-.47-1.81,0-2.63,.47-.81,1.33-1.32,2.26-1.33,.94,.01,1.8,.52,2.26,1.33,.47,.81,.47,1.81,0,2.63-.47,.81-1.33,1.32-2.26,1.33h0Zm26.43-3.25c0,.69-.38,1.32-.98,1.67-.6,.34-1.34,.34-1.93,0-.6-.34-.97-.98-.98-1.67,.01-.69,.38-1.32,.98-1.67,.6-.34,1.34-.34,1.93,0,.6,.34,.97,.98,.98,1.67Zm23.26,7.46c-1.81-.02-3.47-.99-4.37-2.56-.9-1.57-.9-3.49,0-5.06s2.56-2.54,4.37-2.56c1.81,.02,3.47,.99,4.37,2.56s.9,3.5,0,5.06c-.9,1.57-2.56,2.54-4.37,2.56Z"/></g></g></svg>