<?xml version="1.0" encoding="UTF-8"?><svg id="Layer_2" xmlns="http://www.w3.org/2000/svg" viewBox="0 0 127.64 127.64"><defs><style>.cls-1{fill:#fff;}.cls-2{fill:#009aef;}</style></defs><g id="layer"><g><circle class="cls-2" cx="63.82" cy="63.82" r="63.82"/><path class="cls-1" d="M41.47,99.23c-.33,0-.64-.13-.88-.37-.23-.23-.36-.56-.36-.89,0-.33,.14-.65,.38-.88l4.91-4.8c1.41-1.38,3.32-2.03,5.99-2.03h20.57c3.05,0,5.79-1.47,8.38-4.48,6.08-7.1,15.29-18.15,17.08-20.29l.24-.29v-.05c.23-.42,.36-.89,.36-1.4,0-1.54-1.05-2.45-2.07-2.45-.49,0-.93,.19-1.31,.56l-.1,.07s-2.39,2.39-4.96,4.96c-3.62,3.61-5.51,5.52-5.95,6.01-.22,.25-.53,.4-.86,.41h0c-.37,0-.66-.11-.88-.32-.24-.22-.39-.53-.41-.86-.01-.33,.1-.65,.32-.89,.69-.76,2.81-2.87,5.05-5.1l1.01-1.01c2.02-2.02,3.9-3.89,4.62-4.6l.17-.16h.1l.08-.16,.02-.02c.86-.88,1.96-1.37,3.11-1.37,2.5,0,4.54,2.21,4.54,4.92,0,1.13-.35,2.2-1.01,3.09-.14,.18-10.59,12.73-17.27,20.54-3.04,3.55-6.49,5.35-10.24,5.35h-20.57c-1.93,0-3.12,.2-4.25,1.31l-4.91,4.8c-.24,.25-.56,.38-.89,.38h0Zm-13.2-12.02c-.37,0-.72-.16-.96-.45-.21-.26-.31-.58-.28-.91s.19-.63,.44-.84l12.65-10.35c3.13-2.57,7.1-2.9,10.2-2.9h26.72c.38,0,.75,.19,.98,.5,1.65,2.16,1.16,4.92,.15,6.78-1.18,2.18-3.03,3.49-4.96,3.49,0,0-.18,0-.27,0l-.53-.03v.06h-16.06c-.35,0-.66-.13-.89-.36-.23-.23-.37-.55-.37-.88s.13-.65,.37-.88c.23-.23,.54-.35,.87-.35h16.58s.02,0,.06,.02h.17c.81,.01,2.09-.81,2.84-2.2,.58-1.08,.7-2.26,.33-3.33l-.12-.34h-25.88c-4,0-6.66,.72-8.64,2.33l-12.63,10.35c-.23,.19-.5,.29-.79,.29Zm32.68-21.02c-.6,0-1.11-.42-1.22-1l-.9-4.54-.27-.09c-.67-.23-1.3-.5-1.89-.79l-.25-.13-3.92,2.54c-.2,.12-.43,.19-.66,.19-.33,0-.65-.13-.88-.37-.65-.65-1.32-1.3-2.01-1.95-.71-.68-1.42-1.36-2.12-2.06-.4-.41-.47-1.06-.15-1.54l2.62-3.92-.13-.26c-.29-.59-.55-1.22-.79-1.92l-.09-.27-4.64-1.01c-.57-.12-.98-.62-.99-1.2v-5.66c0-.59,.41-1.1,.99-1.22l4.64-1.01,.09-.27c.24-.7,.5-1.33,.79-1.92l.13-.26-2.63-3.9c-.33-.49-.26-1.15,.15-1.56,.7-.7,1.41-1.38,2.11-2.05,.69-.66,1.36-1.31,2.01-1.96,.24-.24,.55-.37,.88-.37,.24,0,.46,.07,.66,.19l3.89,2.57,.26-.13c.58-.29,1.2-.55,1.89-.79l.27-.09,.92-4.56c.11-.53,.56-.94,1.1-.98h5.86c.59,0,1.1,.42,1.22,.99l.92,4.56,.27,.09c.69,.24,1.31,.5,1.89,.79l.26,.13,3.9-2.57c.19-.12,.42-.19,.66-.19,.33,0,.65,.13,.88,.37,.65,.65,1.32,1.3,2.01,1.95,.71,.68,1.42,1.36,2.11,2.06,.42,.42,.48,1.07,.16,1.56l-2.63,3.9,.13,.26c.29,.59,.55,1.22,.79,1.92l.09,.27,4.64,1.01c.58,.12,.99,.63,.99,1.22v5.67c0,.57-.42,1.07-.98,1.19l-4.64,1.01-.09,.27c-.24,.7-.5,1.33-.79,1.92l-.13,.26,2.62,3.92c.31,.48,.25,1.13-.16,1.54-.7,.7-1.41,1.38-2.11,2.06-.68,.66-1.36,1.3-2,1.95-.24,.24-.55,.37-.88,.37-.24,0-.46-.07-.66-.19l-3.92-2.54-.26,.13c-.59,.29-1.23,.56-1.89,.79l-.27,.09-.9,4.54c-.11,.58-.62,1-1.21,1h-5.75Zm-4.73-9.16c.22,0,.44,.06,.63,.17,1.11,.64,2.21,1.1,3.38,1.41,.46,.12,.82,.49,.91,.95l.84,4.16h3.69l.84-4.17c.09-.46,.45-.83,.91-.94,1.18-.31,2.28-.77,3.38-1.41,.2-.12,.41-.18,.63-.18,.24,0,.46,.07,.66,.19l3.58,2.36,2.64-2.6-2.37-3.57c-.27-.39-.3-.91-.06-1.32,.63-1.08,1.12-2.26,1.43-3.4,.12-.45,.47-.79,.93-.89l4.27-.92v-3.68l-4.27-.9c-.45-.1-.8-.44-.92-.89-.31-1.16-.82-2.38-1.43-3.43-.22-.4-.2-.9,.06-1.28l2.4-3.6-.3-.29c-.35-.34-.7-.67-1.05-1.01-.35-.33-.69-.66-1.04-1l-.29-.28-3.59,2.33c-.2,.13-.44,.2-.68,.2-.21,0-.43-.06-.62-.17-1.16-.67-2.26-1.14-3.37-1.43-.46-.12-.82-.49-.91-.95l-.84-4.14h-3.69l-.84,4.14c-.09,.46-.45,.83-.91,.94-1.12,.29-2.22,.76-3.38,1.43-.19,.11-.4,.16-.62,.16-.24,0-.47-.07-.68-.2l-3.59-2.33-.29,.28c-.35,.34-.7,.67-1.04,1-.35,.33-.7,.67-1.05,1.01l-.3,.29,2.4,3.6c.27,.39,.29,.89,.06,1.3-.61,1.04-1.11,2.26-1.43,3.42-.12,.45-.47,.79-.93,.89l-4.27,.9v3.68l4.27,.92c.45,.1,.8,.44,.92,.89,.31,1.14,.8,2.32,1.43,3.4,.23,.41,.21,.92-.06,1.31l-2.38,3.58,2.64,2.6,3.59-2.36c.19-.12,.42-.19,.66-.19Zm7.61-5.53c-3.56,0-6.46-2.9-6.46-6.46s2.9-6.46,6.46-6.46,6.46,2.9,6.46,6.46-2.9,6.46-6.46,6.46Zm0-10.46c-2.2,0-4,1.79-4,4s1.79,4,4,4,4-1.79,4-4-1.79-4-4-4Z"/></g></g></svg>