<?xml version="1.0" encoding="UTF-8"?><svg id="Layer_2" xmlns="http://www.w3.org/2000/svg" viewBox="0 0 127.64 127.64"><defs><style>.cls-1{fill:#fff;}.cls-2{fill:#009aef;}</style></defs><g id="layer"><g><circle class="cls-2" cx="63.82" cy="63.82" r="63.82"/><path class="cls-1" d="M37.03,32.8c-1.17,0-2.18,.53-2.93,1.28-.75,.75-1.3,1.78-1.3,2.95v41.57c0,1.17,.53,2.2,1.28,2.95s1.78,1.3,2.95,1.3h7.75v7.73c0,1.17,.53,2.2,1.28,2.95,.75,.75,1.78,1.3,2.95,1.3h41.59c1.17,0,2.18-.55,2.93-1.3,.75-.74,1.3-1.76,1.3-2.93V49.02c0-1.17-.55-2.2-1.3-2.95-.75-.75-1.75-1.28-2.93-1.28h-7.75v-7.75c0-1.17-.55-2.2-1.3-2.95s-1.75-1.28-2.93-1.28H37.03Zm0,2.82h41.59c.23,0,.64,.16,.95,.46,.31,.31,.46,.71,.46,.95v7.75h-31.02c-1.17,0-2.18,.53-2.93,1.28-.75,.75-1.3,1.78-1.3,2.95v31.02h-7.75c-.25,0-.64-.18-.95-.48-.3-.31-.46-.7-.46-.95V37.03c0-.24,.16-.64,.46-.95,.31-.31,.71-.46,.95-.46h0Zm11.98,11.98h41.59c.24,0,.64,.16,.95,.46,.31,.31,.46,.71,.46,.95v41.59c0,.25-.16,.64-.46,.95-.3,.3-.71,.46-.95,.46H49.02c-.25,0-.64-.18-.95-.48-.3-.31-.46-.7-.46-.95V49.01c0-.23,.16-.64,.46-.95s.71-.46,.95-.46h0Zm19.03,10.57c-6.99,0-12.69,5.7-12.69,12.69,0,4.71,2.49,8.89,6.37,11.08,.33,.24,.74,.32,1.13,.23,.39-.09,.73-.34,.93-.69s.23-.77,.1-1.15c-.13-.38-.42-.69-.79-.84-2.98-1.68-4.91-4.91-4.91-8.64,0-5.47,4.4-9.87,9.87-9.87,4.85,0,8.85,3.48,9.69,8.08l-4.08-2.27c-.68-.38-1.54-.13-1.92,.55-.38,.68-.13,1.54,.55,1.92l6.34,3.52c.33,.18,.71,.23,1.07,.12,.36-.1,.66-.35,.84-.67l3.52-6.34c.27-.46,.26-1.03-.03-1.48-.29-.45-.8-.69-1.33-.64-.47,.05-.88,.33-1.1,.75l-1.45,2.6c-1.6-5.18-6.42-8.97-12.12-8.97h0Z"/></g></g></svg>