<?xml version="1.0" encoding="UTF-8"?><svg id="Layer_2" xmlns="http://www.w3.org/2000/svg" viewBox="0 0 127.64 127.64"><defs><style>.cls-1{fill:#fff;}.cls-2{fill:#009aef;}</style></defs><g id="layer"><g><circle class="cls-2" cx="63.82" cy="63.82" r="63.82"/><g><path class="cls-1" d="M93.73,30.59H47.2c-.88,0-1.73,.35-2.35,.97-.62,.62-.97,1.47-.97,2.35v29.91h-9.97c-.88,0-1.73,.35-2.35,.97-.62,.62-.97,1.47-.97,2.35v26.59c0,.88,.35,1.73,.97,2.35,.62,.62,1.47,.97,2.35,.97h26.59c.88,0,1.73-.35,2.35-.97,.62-.62,.97-1.47,.97-2.35v-9.97h29.91c.88,0,1.73-.35,2.35-.97,.62-.62,.97-1.47,.97-2.35V33.91c0-.88-.35-1.73-.97-2.35-.62-.62-1.47-.97-2.35-.97h0Zm-32.13,63.14c0,.29-.12,.58-.32,.78-.21,.21-.49,.32-.78,.32h-26.59c-.61,0-1.11-.5-1.11-1.11v-26.59c0-.61,.5-1.11,1.11-1.11h9.97v14.4c0,.88,.35,1.73,.97,2.35,.62,.62,1.47,.97,2.35,.97h14.4v9.97Zm33.23-13.29c0,.29-.12,.58-.32,.78-.21,.21-.49,.32-.78,.32H47.2c-.61,0-1.11-.5-1.11-1.11V33.91c0-.61,.5-1.11,1.11-1.11h46.53c.29,0,.58,.12,.78,.32,.21,.21,.32,.49,.32,.78v46.53Z"/><path class="cls-1" d="M89.84,35.09l-5.43,1.36h0c-.52,.13-.98,.44-1.29,.88-.31,.44-.46,.97-.42,1.51,.04,.54,.28,1.04,.66,1.42l1.25,1.25-29.8,29.79-1.26-1.26c-.38-.38-.88-.61-1.42-.66-.54-.04-1.07,.1-1.51,.42s-.75,.77-.88,1.3l-1.36,5.43h0c-.17,.68-.02,1.39,.41,1.94,.43,.55,1.08,.87,1.78,.88,.19,0,.37-.03,.55-.07l5.43-1.36c.52-.13,.98-.44,1.29-.88,.31-.44,.46-.97,.42-1.51-.04-.54-.28-1.04-.66-1.42l-1.25-1.25,29.8-29.79,1.26,1.26c.42,.43,.99,.66,1.59,.66,.21,0,.42-.03,.62-.09,.39-.1,.74-.31,1.02-.6,.28-.29,.48-.65,.57-1.04l1.36-5.43c.19-.77-.03-1.59-.6-2.16-.56-.56-1.38-.79-2.16-.6h0Zm-39.29,42.01s-.02-.03-.02-.05l1.45-5.45,4.04,4.16-5.48,1.34Zm39.9-39.79l-1.45,5.45-4.05-4.16,5.48-1.34h0s.02,.03,.01,.05h0Z"/></g></g></g></svg>