<?xml version="1.0" encoding="UTF-8"?><svg id="Layer_2" xmlns="http://www.w3.org/2000/svg" viewBox="0 0 127.64 127.64"><defs><style>.cls-1{fill:#fff;}.cls-2{fill:#009aef;}</style></defs><g id="layer"><g><circle class="cls-2" cx="63.82" cy="63.82" r="63.82"/><path class="cls-1" d="M33.29,81.1c-.62,0-1.13-.51-1.13-1.13v-9.49c0-.62,.51-1.13,1.13-1.13h8.02c.62,0,1.13,.51,1.13,1.13v9.49c0,.62-.51,1.13-1.13,1.13h-8.02Zm1.11-2.25h5.77v-7.23h-5.77v7.23Z"/><path class="cls-1" d="M49.32,81.08c-.62,0-1.13-.51-1.13-1.13v-20.03c0-.62,.51-1.13,1.13-1.13h8.02c.62,0,1.13,.5,1.13,1.13v20.03c0,.62-.51,1.13-1.13,1.13h-8.02Zm1.13-2.24h5.77v-17.79h-5.77v17.79Z"/><path class="cls-1" d="M65.35,81.09c-.62,0-1.13-.5-1.13-1.13v-31.66c0-.62,.51-1.13,1.13-1.13h8.02c.62,0,1.13,.51,1.13,1.13v31.66c0,.62-.51,1.13-1.13,1.13h-8.02Zm1.13-2.26h5.77v-29.41h-5.77v29.41Z"/><path class="cls-1" d="M81.38,81.1c-.62,0-1.13-.51-1.13-1.13V35.07c0-.62,.5-1.13,1.13-1.13h8.02c.62,0,1.13,.51,1.13,1.13v44.9c0,.62-.5,1.13-1.13,1.13h-8.02Zm1.13-2.25h5.77V36.2h-5.77v42.64Z"/><path class="cls-1" d="M24.67,88.46c-.62,0-1.13-.51-1.13-1.13s.5-1.13,1.13-1.13H98.02c.62,0,1.13,.5,1.13,1.13s-.51,1.13-1.13,1.13H24.67Z"/><path class="cls-1" d="M37.29,59.64c-.33,0-.64-.14-.86-.4-.39-.47-.33-1.18,.14-1.59l31.71-26.87h-3.73c-.62,0-1.13-.51-1.13-1.13s.51-1.13,1.13-1.13h6.89c.05,.01,.14,.04,.21,.06,.02,0,.23,.07,.23,.07l.18,.15s.09,.07,.13,.11l.05,.05s.02,.04,.03,.06c.08,.12,.11,.19,.14,.27,.01,.04,.02,.12,.03,.2v.03l.03,.11v6.84c0,.62-.5,1.13-1.12,1.13s-1.13-.5-1.13-1.13v-4.39l-32.22,27.28c-.21,.17-.47,.27-.73,.27Z"/></g></g></svg>