<?xml version="1.0" encoding="UTF-8"?><svg xmlns="http://www.w3.org/2000/svg" viewBox="0 0 294.21 288.96"><defs><style>.d,.e{fill:#7be3ff;}.e,.f,.g{fill-rule:evenodd;}.f{fill:#fff;}</style></defs><g id="a"/><g id="b"><g id="c"><g><path class="g" d="M79.6,288.93c-2.62,0-5.09-1.03-6.96-2.89-1.86-1.86-2.89-4.33-2.89-6.96V46.63c0-2.62,1.03-5.09,2.89-6.95,1.87-1.87,4.34-2.9,6.96-2.9h27.55V4.06c0-1.08,.42-2.1,1.19-2.86,.76-.76,1.81-1.2,2.87-1.2h78.55c1.06,0,2.1,.44,2.86,1.2,.76,.76,1.2,1.8,1.2,2.86V36.78h27.55c2.61,0,5.08,1.03,6.95,2.9,1.88,1.87,2.91,4.34,2.91,6.95v232.46c0,2.62-1.03,5.09-2.9,6.96-1.87,1.86-4.33,2.89-6.95,2.89H79.6Z"/><path class="f" d="M79.61,42.46c-1.06,0-2.08,.41-2.87,1.16l-.07,.07c-.79,.79-1.23,1.84-1.23,2.94v232.46c0,1.09,.42,2.12,1.19,2.91,.83,.83,1.88,1.27,2.98,1.27H221.38c1.1,0,2.15-.44,2.94-1.23,.78-.76,1.23-1.82,1.23-2.94V46.63c0-1.04-.4-2.04-1.13-2.83l-.08-.09-.09-.08c-.79-.75-1.81-1.17-2.87-1.17H79.61Z"/><rect class="d" x="112.83" y="5.67" width="75.32" height="31.1"/><g><path class="e" d="M94.2,268.4c-1.98,0-3.58-2.04-3.58-4.55v-60.4h119.75v60.4c0,2.42-1.68,4.55-3.59,4.55H94.2Z"/><path d="M206.78,270.39H94.2c-3.08,0-5.58-2.94-5.58-6.55v-62.4h123.75v62.4c0,3.55-2.56,6.55-5.59,6.55Zm-114.16-64.94v58.4c0,1.46,.84,2.55,1.58,2.55h112.58c.62,0,1.59-1.09,1.59-2.55v-58.4H92.62Z"/></g><g><rect class="d" x="90.62" y="129.24" width="119.75" height="60.66"/><path d="M212.37,191.9H88.62V127.24h123.75v64.67Zm-119.75-4h115.75v-56.67H92.62v56.67Z"/></g><g><path class="d" d="M168.78,56.99l-31.96,24.49c-.46,.39-.39,1.15,.23,1.31l8.32,2.46c1.08,.31,1.54,1.54,1.08,2.46l-14.86,28.49c-.15,.39,.23,.69,.54,.46l30.65-24.95c.46-.39,.31-1.15-.23-1.31l-8.39-2.54c-1-.31-1.46-1.46-.92-2.39l16.17-28.03c.15-.31-.31-.69-.62-.46h0Z"/><path d="M131.88,118.75c-.5,0-.99-.16-1.4-.48-.85-.66-1.15-1.78-.74-2.8l.08-.18,14.71-28.2-8.04-2.38c-.91-.23-1.67-1-1.89-1.98-.24-1.03,.13-2.1,.95-2.78l32.04-24.55c.89-.66,2.11-.62,2.97,.11,.85,.71,1.11,1.89,.63,2.85l-.06,.1-15.95,27.64,7.94,2.4c.93,.26,1.65,1.05,1.86,2.05,.21,1.02-.14,2.05-.93,2.71l-30.67,24.96c-.47,.35-1,.53-1.51,.53Zm8.11-37.18l5.95,1.76c1.05,.3,1.92,1.06,2.36,2.08,.46,1.04,.43,2.2-.07,3.2l-11.21,21.49,22.68-18.46-6.13-1.86c-1.07-.33-1.92-1.11-2.32-2.15-.41-1.04-.31-2.19,.25-3.16l12.12-21.01-23.63,18.11Zm21.97,10.75s.03,0,.04,.01h-.04Zm-17.14-5.16h0Zm10.14-.69h0Zm-17.42-5.63l.1,.03s-.06-.02-.1-.03Zm32.44-22.26l-.03,.02,.03-.02h0Z"/></g><path d="M280.84,288.96H20.14c-1.1,0-2-.9-2-2s.9-2,2-2H280.84c1.1,0,2,.9,2,2s-.9,2-2,2Z"/><path d="M292.21,280.26h-25.7c-1.1,0-2-.9-2-2s.9-2,2-2h25.7c1.1,0,2,.9,2,2s-.9,2-2,2Z"/><path d="M27.7,280.26H2c-1.1,0-2-.9-2-2s.9-2,2-2H27.7c1.1,0,2,.9,2,2s-.9,2-2,2Z"/></g></g></g></svg>