<?xml version="1.0" encoding="UTF-8"?><svg xmlns="http://www.w3.org/2000/svg" viewBox="0 0 325.78 296.93"><defs><style>.d{fill:#fff;}.e{fill:#7be3ff;}</style></defs><g id="a"/><g id="b"><g id="c"><g><rect class="d" x="66.07" y="126.67" width="197.52" height="167.13"/><path d="M8.85,296.93c-.69,0-1.34-.27-1.83-.76s-.76-1.15-.76-1.83,.28-1.35,.76-1.83,1.14-.76,1.83-.76H63.25V148l-1.54-.26c-6.34-1.08-12.11-4.37-16.27-9.27-4.15-4.9-6.45-11.14-6.47-17.57v-1.05L63.12,41.54v-2.15h203.41v2.15l24.31,78.31v1.05c-.02,6.42-2.31,12.66-6.47,17.57-4.15,4.91-9.93,8.2-16.27,9.28l-1.54,.26v143.75h56.61c.69,0,1.34,.27,1.83,.76s.76,1.15,.76,1.83-.28,1.35-.76,1.83-1.14,.76-1.83,.76H8.85Zm188.34-5.18h64.21v-66.13h-64.21v66.13Zm-59.54,0h54.36v-124.83h-54.36v124.83Zm-69.39,0h64.21v-66.22H68.26v66.22Zm128.93-71.31h64.16v-53.51h-64.16v53.51Zm-128.93,0h64.21v-53.51H68.26v53.51Zm20.91-85c-2.1,3.34-4.96,6.23-8.28,8.37-3.32,2.14-7.13,3.55-11.04,4.09l-1.59,.22v13.61h193.14v-13.61l-1.59-.22c-3.91-.54-7.73-1.95-11.04-4.09-3.31-2.14-6.18-5.03-8.28-8.37l-1.56-2.48-1.56,2.49c-2.45,3.91-5.88,7.15-9.91,9.38-4.03,2.23-8.6,3.41-13.21,3.41s-9.18-1.18-13.21-3.41c-4.03-2.23-7.46-5.47-9.91-9.38l-1.56-2.49-1.56,2.49c-2.46,3.9-5.89,7.15-9.93,9.38-4.04,2.23-8.61,3.41-13.22,3.41s-9.19-1.18-13.22-3.41c-4.04-2.23-7.47-5.47-9.93-9.38l-1.56-2.49-1.56,2.49c-2.45,3.91-5.88,7.15-9.91,9.38-4.04,2.23-8.61,3.41-13.21,3.41s-9.18-1.18-13.21-3.41c-4.03-2.23-7.46-5.48-9.91-9.38l-1.56-2.49-1.56,2.48Zm103.49-9.71c1.09,4.88,3.84,9.29,7.74,12.41,3.9,3.13,8.8,4.85,13.8,4.85s9.9-1.72,13.8-4.85c3.9-3.13,6.65-7.53,7.74-12.41l.5-2.25h-44.09l.5,2.25Zm-49.16,0c1.09,4.88,3.84,9.28,7.74,12.41,3.9,3.13,8.8,4.85,13.8,4.85s9.9-1.72,13.8-4.85c3.9-3.13,6.65-7.53,7.74-12.41l.5-2.25h-44.09l.5,2.25Zm-49.6,0c1.09,4.88,3.84,9.29,7.74,12.41,3.9,3.13,8.8,4.85,13.8,4.85s9.9-1.72,13.8-4.85c3.9-3.13,6.65-7.53,7.74-12.41l.5-2.25h-44.09l.5,2.25Zm148.18-.05c1.08,4.86,3.82,9.26,7.7,12.38,3.88,3.12,8.76,4.85,13.75,4.86h.49c4.94-.11,9.73-1.88,13.52-4.99s6.47-7.46,7.53-12.25l.5-2.25h-44l.5,2.25Zm-54.87-81.08l4.67,73.78h43.88l-9.59-52-4-21.88-34.96,.1Zm53.85,73.7h43.7l-22.7-73.79h-34.64l13.64,73.79Zm-97.81,0h43.86l-4.67-73.79h-34.52l-4.67,73.79Zm-39.78-51.91l-9.63,51.91h43.89l4.3-73.7h-34.55l-4,21.79Zm-58.58,51.91h43.7l13.64-73.79h-34.64l-22.7,73.79Z"/><polygon class="e" points="67.59 44.51 102.23 44.51 88.59 118.3 44.89 118.3 67.59 44.51"/><polygon class="d" points="107.48 44.6 93.84 118.3 137.73 118.3 142.03 44.6 107.48 44.6"/><polygon class="e" points="147.92 44.51 182.44 44.51 187.11 118.3 143.25 118.3 147.92 44.51"/><polygon class="d" points="187.22 44.61 222.18 44.51 235.77 118.39 191.89 118.39 187.22 44.61"/><polygon class="e" points="227.43 44.51 262.07 44.51 284.76 118.3 241.07 118.3 227.43 44.51"/><path class="d" d="M44.57,125.73c1.07,4.79,3.74,9.14,7.53,12.25,3.79,3.11,8.58,4.88,13.48,4.99h.53c4.99-.01,9.87-1.74,13.75-4.86,3.88-3.12,6.62-7.52,7.7-12.38l.5-2.25H44.07l.5,2.25Z"/><path class="e" d="M93.95,125.73c1.07,4.79,3.74,9.14,7.53,12.25,3.79,3.11,8.58,4.88,13.48,4.99h.53c4.99-.01,9.87-1.74,13.75-4.86,3.88-3.12,6.62-7.52,7.7-12.38l.5-2.25h-44l.5,2.25Z"/><path class="e" d="M192.71,125.73c1.07,4.79,3.74,9.14,7.53,12.25,3.79,3.11,8.58,4.88,13.48,4.99h.53c4.99-.01,9.87-1.74,13.75-4.86,3.88-3.12,6.62-7.52,7.7-12.38l.5-2.25h-44l.5,2.25Z"/><path class="d" d="M242.09,125.73c1.07,4.79,3.74,9.14,7.53,12.25,3.79,3.11,8.58,4.88,13.48,4.99h.53c4.99-.01,9.87-1.74,13.75-4.86,3.88-3.12,6.62-7.52,7.7-12.38l.5-2.25h-44l.5,2.25Z"/><path class="d" d="M143.55,125.73c1.07,4.79,3.74,9.14,7.53,12.25,3.79,3.11,8.58,4.88,13.48,4.99h.53c4.99-.01,9.87-1.74,13.75-4.86,3.88-3.12,6.62-7.52,7.7-12.38l.5-2.25h-44l.5,2.25Z"/><rect class="e" x="137.65" y="166.92" width="54.36" height="124.83"/><rect class="d" x="66.07" y="2.31" width="197.52" height="39.5"/><path d="M265.89,44.11H63.76V0h202.13V44.11Zm-197.52-4.61h192.91V4.61H68.37V39.5Z"/><path class="e" d="M174.56,6.76l-16.38,12.55c-.24,.2-.2,.59,.12,.67l4.26,1.26c.55,.16,.79,.79,.55,1.26l-7.62,14.61c-.08,.2,.12,.36,.28,.24l15.71-12.79c.24-.2,.16-.59-.12-.67l-4.3-1.3c-.51-.16-.75-.75-.47-1.22l8.29-14.37c.08-.16-.16-.36-.32-.24h0Z"/><rect x="177.08" y="21.13" width="28.53" height="1.85"/><rect x="120.75" y="21.13" width="28.52" height="1.85"/><g><g><path class="e" d="M19.72,272.29c0-3.27-2.65-5.92-5.92-5.92s-5.92,2.65-5.92,5.92l-1.03,1.55v21.62h13.9v-21.62l-1.03-1.55Z"/><path d="M20.75,296.93H6.85c-.82,0-1.48-.66-1.48-1.48v-21.62c0-.29,.09-.58,.25-.82l.8-1.2c.24-3.86,3.46-6.93,7.38-6.93s7.14,3.07,7.38,6.93l.8,1.2c.16,.24,.25,.53,.25,.82v21.62c0,.82-.66,1.48-1.48,1.48h0Zm-12.42-2.96h10.94v-19.69l-.79-1.17c-.16-.24-.25-.53-.25-.82,0-2.45-1.99-4.44-4.44-4.44s-4.44,1.99-4.44,4.44c0,.29-.09,.58-.25,.82l-.78,1.17v19.69h0Z"/></g><g><polygon class="d" points="21.61 129.9 5.99 129.9 3.87 112.3 23.73 112.3 21.61 129.9"/><path d="M21.61,131.38H5.99c-.75,0-1.38-.56-1.47-1.3l-2.12-17.6c-.05-.42,.08-.84,.36-1.16,.28-.32,.68-.5,1.11-.5H23.73c.42,0,.83,.18,1.11,.5,.28,.32,.41,.74,.36,1.16l-2.12,17.6c-.09,.74-.72,1.3-1.47,1.3h0Zm-14.31-2.96h13l1.76-14.64H5.54l1.76,14.64h0Z"/></g><g><path class="e" d="M13.8,102.7c-5.3,0-9.59,4.3-9.59,9.6H23.39c0-5.3-4.29-9.6-9.6-9.6Z"/><path d="M23.39,113.78H4.2c-.82,0-1.48-.66-1.48-1.48,0-6.11,4.97-11.08,11.07-11.08s11.07,4.97,11.07,11.08c0,.82-.66,1.48-1.48,1.48h0Zm-17.58-2.96h15.96c-.7-3.78-4.01-6.64-7.98-6.64s-7.28,2.87-7.98,6.64h0Z"/></g><path d="M25.82,114.07H1.77c-.98,0-1.77-.79-1.77-1.77s.79-1.78,1.77-1.78H25.82c.98,0,1.77,.79,1.77,1.78s-.79,1.77-1.77,1.77h0Z"/><path d="M16.16,143.22h-4.71c-.82,0-1.48-.66-1.48-1.48s.66-1.48,1.48-1.48h4.71c.82,0,1.48,.66,1.48,1.48s-.66,1.48-1.48,1.48h0Z"/><polygon points="15.28 267.85 12.32 267.85 12.32 110.82 15.28 110.82 15.28 267.85 15.28 267.85"/><polygon points="15.28 104.18 12.32 104.18 12.32 97.06 15.28 97.06 15.28 104.18 15.28 104.18"/><path d="M16.18,98.54c0-1.32-1.07-2.38-2.38-2.38s-2.38,1.07-2.38,2.38,1.07,2.38,2.38,2.38,2.38-1.07,2.38-2.38Z"/></g><path d="M315.98,284.26h-25.7c-1.1,0-2-.9-2-2s.9-2,2-2h25.7c1.1,0,2,.9,2,2s-.9,2-2,2Z"/></g></g></g></svg>