<?xml version="1.0" encoding="UTF-8"?><svg xmlns="http://www.w3.org/2000/svg" viewBox="0 0 450.79 291.73"><defs><style>.d{fill:#fff;}.e{fill:#7be3ff;}</style></defs><g id="a"/><g id="b"><g id="c"><g><g><path class="e" d="M144.07,41.62l-31.96,24.49c-.46,.39-.39,1.15,.23,1.31l8.32,2.46c1.08,.31,1.54,1.54,1.08,2.46l-14.86,28.49c-.15,.39,.23,.69,.54,.46l30.65-24.95c.46-.39,.31-1.15-.23-1.31l-8.39-2.54c-1-.31-1.46-1.46-.92-2.39l16.17-28.03c.15-.31-.31-.69-.62-.46h0Z"/><path d="M107.17,103.38c-.5,0-.99-.16-1.4-.48-.85-.66-1.15-1.78-.74-2.8l.08-.18,14.71-28.2-8.04-2.38c-.91-.23-1.66-.99-1.89-1.98-.23-1.02,.14-2.11,.95-2.78l32.04-24.55c.88-.66,2.11-.62,2.97,.1,.85,.71,1.12,1.89,.63,2.85l-.06,.11-15.95,27.64,7.94,2.4c.93,.27,1.65,1.05,1.86,2.05,.21,1.01-.14,2.05-.93,2.71l-30.67,24.96c-.47,.35-1,.53-1.51,.53Zm8.11-37.18l5.95,1.76c1.05,.3,1.92,1.06,2.36,2.08,.46,1.04,.43,2.2-.07,3.2l-11.21,21.5,22.68-18.46-6.13-1.86c-1.08-.33-1.92-1.11-2.32-2.15-.4-1.04-.31-2.19,.25-3.16l12.12-21.01-23.63,18.11Zm21.97,10.75h0Zm-17.14-5.15h0Zm10.14-.69h0Zm-17.42-5.63l.1,.03s-.06-.02-.1-.03Zm32.44-22.26l-.03,.02,.03-.02h0Z"/></g><path d="M27.7,283.03H2c-1.1,0-2-.9-2-2s.9-2,2-2H27.7c1.1,0,2,.9,2,2s-.9,2-2,2Z"/><path d="M448.79,283.03h-25.7c-1.1,0-2-.9-2-2s.9-2,2-2h25.7c1.1,0,2,.9,2,2s-.9,2-2,2Z"/><path d="M429.71,291.73H18c-1.1,0-2-.9-2-2s.9-2,2-2H429.71c1.1,0,2,.9,2,2s-.9,2-2,2Z"/><g><path class="e" d="M80.47,148.14l-32.85,30.63v49.06l14.06,10.86,251.78-2.78s9.16-54.47,58.81-51.35h5.56l-3.6-30.27-49.06-45.86-7.36-5.4,4.35-53.11-23.31-14.37,2.42,149.32s-6.5,31.1-31.1,31.1-81.24-5.56-81.24-5.56l-5.87-65.27-102.59,2.99Z"/><path d="M367.26,265.46c-16.29,0-29.54-13.25-29.54-29.54,0-6.97,2.48-13.58,7.17-19.12,.57-.62,1.46-1.01,2.34-1.01,.4,0,.98,.09,1.44,.5,.59,.53,.97,1.3,1.05,2.1,.04,.4,.03,1.15-.49,1.73l-.14,.16c-3.75,4.59-5.81,10.13-5.81,15.63,0,13.45,10.53,23.98,23.98,23.98s23.98-10.53,23.98-23.98-10.54-23.98-23.98-23.98c-1.61,0-2.78-1.17-2.78-2.78s1.17-2.78,2.78-2.78c16.29,0,29.54,13.25,29.54,29.54s-13.25,29.54-29.54,29.54Z"/><path d="M367.26,289.73c-29.67,0-53.81-24.14-53.81-53.82s24.14-53.82,53.81-53.82,53.82,24.14,53.82,53.82-24.14,53.82-53.82,53.82Zm0-101.76c-26.61,0-48.25,21.65-48.25,48.25s21.65,48.26,48.25,48.26,48.26-21.65,48.26-48.26-21.65-48.25-48.26-48.25Z"/><path d="M365.08,236.52c-.82,0-1.69-.37-2.33-.98l-31.93-35.34c-.93-1.04-.81-2.86,.26-3.82,.46-.41,1.08-.64,1.75-.64,.82,0,1.58,.32,2.08,.89l32.38,35.5c.43,.48,.65,1.16,.61,1.9-.04,.69-.33,1.35-.78,1.81-.61,.44-1.31,.68-2.04,.68Z"/><path d="M115.19,265.46c-16.29,0-29.54-13.25-29.54-29.54,0-1.61,1.17-2.78,2.78-2.78s2.78,1.17,2.78,2.78c0,13.45,10.53,23.98,23.98,23.98s23.98-10.53,23.98-23.98c0-1.61,1.17-2.78,2.78-2.78s2.78,1.17,2.78,2.78c-.27,16.56-13.25,29.54-29.54,29.54Z"/><path d="M115.19,289.73c-27.71,0-51.04-21.36-53.58-48.82h5.59c2.52,24.33,23.43,43.26,48,43.26s45.47-18.93,48-43.26h5.54c-2.8,27.46-26.11,48.82-53.53,48.82Z"/><path d="M54.51,148.14c-11.83,0-21.45-9.62-21.45-21.45v-4.36c0-11.83,9.62-21.45,21.45-21.45h112.65c11.83,0,21.45,9.62,21.45,21.45v4.36c.12,5.72-1.98,11.07-5.92,15.09-4.01,4.1-9.42,6.36-15.22,6.36H54.51Z"/><rect class="d" x="38.62" y="106.44" width="144.44" height="36.14" rx="15.89" ry="15.89"/><path d="M61.67,238.7c-10.46,0-18.96-8.51-18.96-18.96v-28.63c0-8.82,3.26-16.75,9.43-22.92l24.9-24.89c.36-.36,.82-.71,2.07-.71h107.05c1.61,0,2.78,1.17,2.78,2.78v65.06h81.55c13.84,0,25.54-11.7,25.54-25.54V38.31c0-.97,.56-2.01,1.28-2.37,.48-.24,1.03-.37,1.54-.37,.45,0,.85,.1,1.1,.28l.2,.14,22.01,13.95c.72,.54,1.21,1.47,1.21,2.38v49.37l45.65,45.65c5.76,5.76,8.8,13.25,8.8,21.67v15.56c0,1.61-1.17,2.78-2.78,2.78s-2.78-1.17-2.78-2.78v-15.56c0-6.55-2.62-12.78-7.38-17.54l-46.37-46.37c-.36-.36-.71-.82-.71-2.07V53.88l-16.54-10.23V184.88c0,17.15-13.95,31.1-31.1,31.1h-84.02c-1.61,0-2.78-1.17-2.78-2.78v-65.06H80.47l-24.49,24.16c-4.9,4.9-7.71,11.76-7.71,18.81v28.63c0,7.39,6.01,13.4,13.4,13.4h252.69c1.61,0,2.78,1.17,2.78,2.78s-1.17,2.78-2.78,2.78H61.67Z"/><path d="M298.8,41.09c-1.61,0-2.78-1.17-2.78-2.78V22.04l-19.75-17.36c-.48-.43-.79-1.13-.84-1.87-.04-.74,.18-1.42,.63-1.92,.51-.56,1.27-.89,2.08-.89,.67,0,1.29,.23,1.75,.64l20.46,18.28c.55,.58,.92,1.45,.92,2.27v17.59l.02,.25c.02,.25-.11,.71-.54,1.18-.51,.55-1.22,.87-1.95,.87Z"/><path d="M337.07,97.1c-.7,0-1.45-.31-2.28-.93l-11.3-11.29c-.36-.36-.71-.82-.71-2.07v-18.05c0-1.16,.42-1.84,1.39-2.28l16.96-8.32,.27-.18h0s.24-.09,.65-.09l16.59-.31c.29,0,1.26,.28,2.15,.91,.29,.34,.53,.82,.53,1.87v37.8c-.17,1.67-1.47,2.94-3.09,2.94h-21.16Z"/><polygon class="d" points="328.03 66.65 328.03 81.83 338.18 91.54 355.46 91.54 355.46 59.45 342.43 59.45 328.03 66.65"/></g></g></g></g></svg>