<?xml version="1.0" encoding="UTF-8"?><svg xmlns="http://www.w3.org/2000/svg" viewBox="0 0 397.39 309"><defs><style>.d{fill:#7be3ff;}.e{fill:#231f20;}</style></defs><g id="a"/><g id="b"><g id="c"><path d="M27.7,300.3H2c-1.1,0-2-.9-2-2s.9-2,2-2H27.7c1.1,0,2,.9,2,2s-.9,2-2,2Z"/><path d="M395.39,300.3h-25.7c-1.1,0-2-.9-2-2s.9-2,2-2h25.7c1.1,0,2,.9,2,2s-.9,2-2,2Z"/><path d="M385.79,309H19.16c-1.1,0-2-.9-2-2s.9-2,2-2H385.79c1.1,0,2,.9,2,2s-.9,2-2,2Z"/><g><polygon class="d" points="53.26 92.28 61.52 106.49 204.64 24.17 347.76 106.49 356.02 92.28 205.83 .3 53.26 92.28"/><path class="e" d="M73.47,308.8c-.59,0-1.17-.24-1.59-.66-.42-.42-.66-.99-.66-1.59V106.03l-9.45,5.53c-.31,.17-.7,.28-1.1,.28-.2,0-.4-.03-.6-.08-.59-.16-1.08-.54-1.39-1.06l-10.49-18.14c-.15-.26-.25-.54-.29-.84-.04-.3-.02-.59,.06-.88,.08-.29,.21-.55,.39-.79,.18-.24,.41-.43,.66-.58L203.52,.27c.3-.16,.71-.27,1.12-.27s.82,.1,1.19,.3l154.4,89.16c.49,.29,.88,.79,1.07,1.38,.13,.6,.04,1.22-.26,1.76l-10.46,18.1c-.3,.51-.79,.89-1.38,1.04-.19,.05-.4,.08-.6,.08-.4,0-.79-.1-1.14-.3l-9.4-5.5v200.52c0,.6-.23,1.16-.66,1.59s-1,.66-1.59,.66H73.47ZM314.82,115.42c.59,0,1.17,.24,1.59,.66s.66,1,.66,1.59v186.64h16.49V103.5L204.64,28.99,75.72,103.5v200.81h16.49V117.66c0-.59,.24-1.17,.66-1.59s.99-.66,1.59-.66h220.37Zm-47.22,41.97c.59,0,1.17,.24,1.59,.66s.66,1,.66,1.59v60.72h18.74c.6,0,1.17,.23,1.59,.66s.66,.99,.66,1.59v81.7h21.74V119.91H96.7v184.39h21.74v-81.7c0-.6,.23-1.17,.66-1.59s.99-.66,1.59-.66h18.74v-60.72c0-.59,.24-1.17,.66-1.59,.42-.42,1-.66,1.59-.66h125.92Zm-33.73,67.46h-26.99v79.46h79.46v-79.46h-26.99m-109.43,0h-26.99v79.46h79.46v-79.46h-26.99m-4.49,0h-16.49m100.44,0h-16.49m-14.99-62.96h-16.49v58.47h58.47v-58.47h-16.49m-88.44,0h-16.49v58.47h58.47v-58.47h-16.49m58.47,0h-16.49m-46.47,0h-16.49M204.64,24.17c.41,0,.81,.1,1.16,.3l141.96,82.01,8.26-14.21L204.64,4.8,53.26,92.28l8.26,14.21L203.52,24.45c.31-.17,.72-.28,1.12-.28Z"/><rect class="d" x="122.94" y="224.85" width="79.46" height="79.46"/><rect class="d" x="143.92" y="161.89" width="58.47" height="58.47"/><rect class="d" x="206.89" y="161.89" width="58.47" height="58.47"/><rect class="d" x="206.89" y="224.85" width="79.46" height="79.46"/></g></g></g></svg>