<?xml version="1.0" encoding="UTF-8"?><svg xmlns="http://www.w3.org/2000/svg" viewBox="0 0 128.08 128.08"><defs><style>.d{fill:#7be3ff;}.e{fill:#009aef;}</style></defs><g id="a"/><g id="b"><g id="c"><g><circle class="d" cx="109.84" cy="18.49" r="11.07"/><circle class="d" cx="18.24" cy="18.24" r="11.64"/><rect class="d" x="1.49" y="97.35" width="25.18" height="29.37"/><path class="e" d="M48.19,128.08c-6.62,0-13.14-1.09-19.38-3.23l-.66-.23v3.45H0v-32.31H28.15v4.13l.81-.63c4.04-3.14,8.87-5.03,13.98-5.48l1.04-.09-9.82-10.23,2.62-5.24-.12-.22c-.74-1.44-1.36-2.94-1.86-4.48l-.08-.24-5.58-1.86v-5.8H15.5l-.1,.38c-.89,3.46-4.01,5.87-7.58,5.87-4.32,0-7.83-3.51-7.83-7.83s3.51-7.83,7.83-7.83c3.57,0,6.69,2.41,7.58,5.87l.1,.38h13.64v-5.8l5.58-1.86,.08-.24c.5-1.53,1.12-3.04,1.86-4.48l.12-.23-2.63-5.26,4.1-4.1-11.24-11.24-.35,.26c-2.45,1.84-5.36,2.81-8.42,2.81-7.76,0-14.07-6.31-14.07-14.07S10.48,4.16,18.24,4.16c7.76,0,14.07,6.31,14.07,14.07,0,3.06-.97,5.97-2.8,8.42l-.26,.35,11.24,11.24,4.1-4.1,5.26,2.63,.23-.12c1.44-.74,2.95-1.36,4.48-1.86l.24-.08,1.86-5.58h5.8v-9.45l-.4-.08c-4.59-.94-7.93-5.02-7.93-9.71,0-5.46,4.45-9.91,9.91-9.91s9.91,4.45,9.91,9.91c0,4.69-3.33,8.77-7.93,9.71l-.4,.08v9.45h5.8l1.86,5.58,.24,.08c1.53,.5,3.03,1.12,4.48,1.86l.23,.12,5.26-2.63,4.1,4.1,11.24-11.24-.26-.35c-1.84-2.45-2.81-5.36-2.81-8.42,0-7.76,6.31-14.07,14.07-14.07s14.07,6.31,14.07,14.07-6.31,14.07-14.07,14.07c-3.06,0-5.97-.97-8.42-2.8l-.35-.26-11.24,11.24,4.1,4.1-2.63,5.26,.12,.22c.74,1.44,1.36,2.94,1.86,4.48l.08,.24,5.58,1.86v5.8h13.64l.1-.38c.89-3.46,4.01-5.87,7.58-5.87,4.32,0,7.83,3.51,7.83,7.83,0,4.32-3.51,7.83-7.83,7.83-3.57,0-6.69-2.41-7.58-5.87l-.1-.38h-13.64v5.8l-5.58,1.86-.08,.24c-.5,1.53-1.12,3.04-1.86,4.48l-.12,.22,2.63,5.26-10.45,10.44-5.26-2.63s-.68,.34-.91,.45l-.51,.24,.31,.48c.66,1.02,1,2.21,1,3.42,0,4.05-1.56,7.9-4.4,10.81l-1.15,1.18,1.61-.35c3.3-.71,6.44-1.92,9.34-3.61l15.67-9.14c1.24-.72,2.66-1.11,4.1-1.11h.19c2.12,0,4.12,.83,5.62,2.33,1.5,1.5,2.33,3.5,2.33,5.62v.16c0,4.25-2.29,8.18-5.98,10.26l-14.85,8.35c-8.93,5.02-19.07,7.68-29.32,7.68h-13.1Zm-2.88-31.23c-6.29,0-12.2,2.45-16.65,6.9l-.5,.5v17l.33,.12c6.32,2.35,12.96,3.54,19.71,3.54h13.1c9.71,0,19.31-2.51,27.77-7.27l6.72-3.78v-4.72c0-2.72,1.38-5.2,3.68-6.64l7.22-4.51-.68-.42c-.76-.47-1.62-.72-2.51-.72h-.19c-.88,0-1.75,.24-2.5,.68l-15.67,9.14c-5.33,3.11-11.41,4.75-17.58,4.75h-12.17c-3.21,0-6.23,1.19-8.57,3.35l-2.24-2.24c2.94-2.76,6.76-4.28,10.81-4.28h7.23c5.42,0,10.15-3.47,11.79-8.64l.39-1.22-6.42,3.67c-1.18,.68-2.52,1.03-3.88,1.03h-.42c-3.57,0-6.69-2.41-7.58-5.87l-.1-.38h-11.06ZM3.16,124.92H24.98v-25.98H3.16v25.98Zm104.33-23.71l-6.37,3.98c-1.37,.86-2.19,2.33-2.19,3.95v2.94l4.96-2.79c2.69-1.51,4.37-4.39,4.37-7.5v-1.06l-.76,.47Zm-35.76-8.52c-.64,0-1.25,.19-1.78,.54-2.88,1.92-6.22,3.13-9.64,3.5l-.74,.08,.35,.65c.82,1.53,2.39,2.48,4.12,2.48h.42c.81,0,1.61-.21,2.31-.62l8-4.57-.25-.43c-.57-1-1.64-1.62-2.79-1.63h0Zm-33.75-9.8l10.36,10.8h9.64c3.65,0,7.18-1.07,10.22-3.09,1.05-.7,2.27-1.07,3.54-1.07,.62,0,1.24,.09,1.84,.27l.16,.05,.16-.06c1.23-.47,2.42-1.02,3.53-1.64l.73-.41,4.71,2.35,7.22-7.22-2.35-4.71,.41-.73c1.03-1.84,1.84-3.8,2.41-5.82l.23-.8,4.99-1.66v-10.21l-4.99-1.66-.23-.8c-.58-2.02-1.39-3.98-2.41-5.82l-.41-.73,2.35-4.71-7.22-7.22-4.71,2.35-.73-.41c-1.84-1.03-3.8-1.84-5.82-2.41l-.8-.23-1.66-4.99h-10.21l-1.66,4.99-.8,.23c-2.02,.58-3.97,1.39-5.82,2.41l-.73,.41-4.71-2.35-7.22,7.22,2.35,4.71-.41,.73c-1.03,1.84-1.84,3.8-2.41,5.82l-.23,.8-4.99,1.66v10.21l4.99,1.66,.23,.8c.57,2.02,1.39,3.97,2.41,5.82l.41,.73-2.36,4.73Zm82.27-23.51c-2.57,0-4.66,2.09-4.66,4.66s2.09,4.66,4.66,4.66,4.66-2.09,4.66-4.66c0-2.57-2.09-4.66-4.66-4.66Zm-112.43,0c-2.57,0-4.66,2.09-4.66,4.66s2.09,4.66,4.66,4.66,4.67-2.09,4.67-4.66-2.09-4.66-4.67-4.66ZM18.24,7.33c-6.02,0-10.91,4.89-10.91,10.91s4.89,10.91,10.91,10.91c2.91,0,5.65-1.14,7.71-3.2,2.06-2.06,3.2-4.8,3.2-7.71,0-6.02-4.89-10.91-10.91-10.91Zm91.6,0c-6.02,0-10.91,4.9-10.91,10.91,0,6.02,4.89,10.91,10.91,10.91s10.91-4.89,10.91-10.91-4.89-10.91-10.91-10.91h0ZM64.04,3.16c-3.72,0-6.75,3.03-6.75,6.75s3.03,6.75,6.75,6.75,6.75-3.03,6.75-6.75-3.03-6.75-6.75-6.75Z"/></g></g></g></svg>