<?xml version="1.0" encoding="UTF-8"?><svg xmlns="http://www.w3.org/2000/svg" viewBox="0 0 150.37 132.94"><defs><style>.d{fill:#7be3ff;}.e{fill:#009aef;}</style></defs><g id="a"/><g id="b"><g id="c"><g><path class="e" d="M83.9,132.94c-.53,0-1.03-.21-1.4-.58-.38-.38-.58-.87-.58-1.4v-6.97c0-.71,.38-1.37,.99-1.72,.3-.17,.64-.27,.99-.27s.69,.09,.99,.27c.61,.35,.99,1.01,.99,1.72v4.97l1.59-.09c15.33-.9,29.74-7.37,40.6-18.22,10.85-10.86,17.33-25.27,18.22-40.59l.09-1.59h-4.97c-.7,0-1.36-.38-1.72-.99-.35-.61-.35-1.37,0-1.98,.35-.61,1.01-.99,1.72-.99h4.97l-.09-1.59c-.9-15.33-7.37-29.74-18.22-40.6-10.86-10.86-25.27-17.33-40.6-18.22l-1.59-.09v4.97c0,.7-.38,1.36-.99,1.71-.3,.17-.65,.27-.99,.27s-.69-.09-.99-.27c-.61-.35-.99-1.01-.99-1.72V1.99c0-.53,.21-1.03,.58-1.4,.38-.38,.88-.58,1.41-.58,36.65,0,66.47,29.82,66.47,66.47s-29.82,66.47-66.47,66.47Z"/><path class="e" d="M84.49,73.1c-.25,0-.51-.02-.76-.05-1.72-.22-3.27-1.17-4.25-2.6-.97-1.44-1.29-3.22-.85-4.91,.43-1.68,1.57-3.1,3.12-3.89,.84-.43,1.79-.66,2.74-.66,.77,0,1.52,.14,2.23,.43l.8,.32,29.82-23.13c.13-.1,.27-.12,.36-.12,.18,0,.34,.08,.46,.21,.21,.25,.18,.61-.06,.82l-28.03,25.03,.25,.9c.14,.52,.22,1.06,.22,1.6v.14c-.04,1.69-.78,3.28-2.05,4.4-1.11,.97-2.53,1.51-4,1.51h0Z"/><path class="d" d="M84.52,63.21c-.22,0-.45,.02-.67,.06-.17,.03-.33,.07-.49,.12-1.62,.49-2.72,1.96-2.72,3.66,0,1.89,1.34,3.49,3.21,3.8,.21,.03,.42,.05,.63,.05,1.64,0,3.1-1.05,3.63-2.6,.06-.18,.11-.37,.15-.56,.24-1.24-.15-2.5-1.03-3.4-.71-.72-1.7-1.13-2.71-1.13Z"/><path class="e" d="M1.31,69.04c-.62,0-1.31-.82-1.31-1.99s.69-1.99,1.31-1.99H63.08c.39,0,.68,.29,.82,.46,.31,.39,.49,.94,.49,1.52,0,1.17-.69,1.99-1.31,1.99H1.31Z"/><path class="e" d="M16.64,103.89c-.45,0-1.09-.77-1.09-1.99s.65-1.99,1.09-1.99H63.3c.45,0,1.09,.77,1.09,1.99s-.65,1.99-1.09,1.99H16.64Z"/><path class="e" d="M16.64,34.18c-.45,0-1.09-.77-1.09-1.99s.65-1.99,1.09-1.99H63.3c.45,0,1.09,.77,1.09,1.99s-.65,1.99-1.09,1.99H16.64Z"/></g></g></g></svg>