<?xml version="1.0" encoding="UTF-8"?><svg xmlns="http://www.w3.org/2000/svg" viewBox="0 0 165.44 135.73"><defs><style>.d{fill:#7be3ff;}.e{fill:#009aef;}</style></defs><g id="a"/><g id="b"><g id="c"><g><rect class="d" y="26.67" width="13.75" height="49.64"/><path class="e" d="M29.69,89.85l12.99-12.16-4.73,.81c-1.76,.3-3.21,.44-4.57,.44-4.89,0-9.76-1.33-14.9-4.06l-2.12-1.13v5.18H0v-2.62H13.75V26.67H0v-2.62H16.37v8.1l1.6-.18c8.43-.93,15.84-5.79,23.69-10.93,4.42-2.9,8.97-5.88,14.06-8.48,2.85-1.47,6.48-2.28,10.22-2.28s7.38,.81,10.23,2.28c2.08,1.06,8.21,4.98,17.71,11.33l.98,.65L119.58,0l45.86,45.86-89.87,89.87L29.69,89.85Zm33.61-22.57c-2.35,.35-4.3,1.56-7,3.36-1.71,1.14-3.84,2.56-6.5,3.9l-.19,.09-16.17,15.26,42.13,42.13L161.74,45.86,119.58,3.7l-47.37,47.06h8.86c.19,0,.38,.02,.57,.03l.77,.06,29.84-28.84,.91,.92c1.64,1.65,3.97,2.59,6.41,2.59s4.78-.95,6.41-2.59l.93-.93,16.52,16.55-.93,.93c-1.72,1.71-2.66,3.97-2.67,6.38,0,2.42,.94,4.7,2.67,6.43l.93,.93-60.52,60.52-.93-.93c-1.64-1.64-3.98-2.58-6.42-2.58s-4.78,.94-6.42,2.58l-.93,.93-16.51-16.51,.93-.93c1.72-1.72,2.67-4,2.67-6.43,0-2.41-.95-4.67-2.66-6.38l-.93-.93,15.9-15.92-4.32,.65Zm2.65-54.35c-3.35,0-6.56,.7-9.02,1.97-4.94,2.53-9.41,5.45-13.73,8.28l-.1,.06c-8.27,5.42-16.09,10.53-25.42,11.38l-1.31,.12v35.84l.68,.42c5.71,3.57,11.06,5.31,16.35,5.31,2.02,0,4.07-.26,6.1-.77,7.53-1.88,11.86-4.77,15.34-7.09,3.33-2.22,5.94-3.96,9.74-3.96h26.24l-.32-1.71c-1.16-6.19-5.61-9.43-9.42-9.43h-24.76c-5.55,0-8.69-4.65-9.4-8.12h2.72c.69,2.27,2.83,5.5,6.69,5.5h12.18l13.12-13.03-2.32-.7c-4.51-1.35-7.78-2.1-9.22-2.1-3.08,0-5.22,2.15-6.29,3.58l-2.37-1.19c1.28-1.82,4.15-5,8.67-5,2.09,0,6.39,1.03,12.8,3.07l.83,.26,9.27-9.21-1.47-.98c-5.08-3.39-13.98-9.26-16.53-10.56-2.47-1.27-5.68-1.97-9.03-1.97Z"/><path class="d" d="M75.58,107.58c2.29,0,4.55,.64,6.36,1.81l.98,.63,56.83-56.83-.64-.98c-1.23-1.89-1.89-4.09-1.88-6.38,0-2.26,.66-4.44,1.88-6.31l.64-.98-12.82-12.85-.98,.64c-1.81,1.18-4.06,1.83-6.36,1.83s-4.58-.66-6.39-1.85l-.96-.63-26.84,25.94,1.51,.99c4.07,2.67,6.5,7.61,6.5,13.2v1.31h-22.56l-15.4,15.43,.64,.98c1.23,1.88,1.87,4.06,1.88,6.32,0,2.28-.65,4.48-1.88,6.37l-.64,.98,12.83,12.83,.98-.63c1.8-1.17,4.06-1.81,6.36-1.81Z"/></g></g></g></svg>