<?xml version="1.0" encoding="UTF-8"?><svg xmlns="http://www.w3.org/2000/svg" viewBox="0 0 129.07 129.08"><defs><style>.d{fill:#7be3ff;}.e{fill:#009aef;}</style></defs><g id="a"/><g id="b"><g id="c"><path class="e" d="M25.76,0c-1.03,0-1.82,.79-1.82,1.81V70.79H1.81c-1.02,0-1.81,.79-1.81,1.82v54.65c0,1.03,.78,1.81,1.81,1.81H56.47c1.03,0,1.81-.78,1.81-1.81v-22.13H127.26c1.03,0,1.81-.78,1.81-1.81V1.82c0-1.03-.78-1.81-1.81-1.81H25.76Zm1.81,3.62H125.44V101.49H58.28v-28.89c0-1.03-.78-1.81-1.81-1.81H27.57V3.62Zm63.23,15.37c-1.02,0-1.81,.79-1.81,1.82s.78,1.81,1.81,1.81h12.95l-36.4,36.39c-.73,.73-.73,1.84,0,2.56,.36,.36,.81,.53,1.27,.53h.02c.47,0,.92-.17,1.27-.53h0L106.13,25.37v12.56c0,1.03,.78,1.81,1.81,1.81s1.81-.78,1.81-1.81V20.82c0-1.03-.79-1.82-1.81-1.82h-17.14ZM3.63,74.41H23.94v28.89c0,1.02,.8,1.82,1.82,1.82h28.89v20.31H3.63v-51.03Zm23.94,0h27.09v27.08H27.57v-27.08Z"/><rect class="d" x="3.63" y="74.41" width="51.03" height="51.03"/></g></g></svg>