<?xml version="1.0" encoding="UTF-8"?><svg id="Layer_2" xmlns="http://www.w3.org/2000/svg" viewBox="0 0 427.44 225.53"><defs><style>.cls-1{fill:#fff;}.cls-2{fill:#009aef;}</style></defs><g id="layer"><g><g><path d="M200.05,137.94v6.64c0,1.85,.64,3.41,1.93,4.67,1.29,1.27,2.86,1.9,4.71,1.9s3.4-.63,4.67-1.9c1.27-1.27,1.9-2.82,1.9-4.67v-13.21c0-1.85-.63-3.4-1.9-4.67-1.27-1.27-2.83-1.9-4.67-1.9-5.93-.04-10.87-2.26-14.82-6.64-3.35-3.78-5.03-8.19-5.03-13.21v-13.15c0-5.46,1.94-10.13,5.83-14.02,3.89-3.89,8.56-5.83,14.02-5.83s10.12,1.94,13.99,5.83c3.87,3.89,5.8,8.56,5.8,14.02v6.57h-13.21v-6.57c0-1.85-.63-3.42-1.9-4.7-1.27-1.29-2.83-1.93-4.67-1.93s-3.42,.64-4.71,1.93c-1.29,1.29-1.93,2.86-1.93,4.7v13.15c0,1.85,.64,3.42,1.93,4.71,1.29,1.29,2.86,1.93,4.71,1.93,5.89,0,10.81,2.19,14.76,6.57,3.35,3.78,5.03,8.19,5.03,13.21v13.21c0,5.46-1.93,10.12-5.8,13.99-3.87,3.87-8.53,5.8-13.99,5.8s-10.13-1.93-14.02-5.8c-3.89-3.87-5.83-8.53-5.83-13.99v-6.64h13.21Z"/><polygon points="236.47 71.94 249.68 71.94 249.68 111.58 262.89 111.58 262.89 71.94 276.11 71.94 276.11 164.36 262.89 164.36 262.89 124.79 249.68 124.79 249.68 164.36 236.47 164.36 236.47 71.94"/><polygon points="288.74 164.36 288.74 71.94 328.38 71.94 328.38 85.15 301.95 85.15 301.95 111.58 321.74 111.58 321.74 124.79 301.95 124.79 301.95 151.15 328.38 151.15 328.38 164.36 288.74 164.36"/><path d="M337.01,72.07l26.43,.13c3.61,0,6.69,1.28,9.25,3.84,2.56,2.56,3.83,5.64,3.83,9.25v26.43c0,5.03-2.17,8.81-6.51,11.34l6.51,41.31h-13.08l-6.57-39.57h-6.77v39.57h-13.08V72.07Zm13.08,13.08v26.68h8.31c1.42,0,2.61-.5,3.58-1.51,.97-1.01,1.45-2.18,1.45-3.51v-16.5c0-1.42-.48-2.63-1.45-3.64-.97-1.01-2.16-1.51-3.58-1.51h-8.31Z"/><path d="M387.8,71.94h13.21v72.64c0,1.85,.63,3.41,1.9,4.67,1.27,1.27,2.84,1.9,4.7,1.9s3.44-.63,4.71-1.9c1.27-1.27,1.9-2.82,1.9-4.67V71.94h13.21v72.64c0,5.46-1.94,10.12-5.83,13.99-3.89,3.87-8.55,5.8-13.99,5.8s-10.1-1.93-13.99-5.8c-3.89-3.87-5.83-8.53-5.83-13.99V71.94Z"/></g><path class="cls-2" d="M110.64,221.63c0,2.15-11.72,3.89-26.18,3.89s-26.18-1.74-26.18-3.89,11.72-3.89,26.18-3.89,26.18,1.74,26.18,3.89"/><path class="cls-2" d="M58.93,3.08C13.84,17.65-2.18,60.01,.23,97.45c.22,3.4,.59,6.76,1.12,10.04,.51,2.7,1.14,5.39,1.89,8.05,5.74,23.68,24.27,40.64,41.08,56.77,1.58,1.56,3.12,3.08,4.62,4.59,20.96,21.07,33.55,38.68,33.55,38.68C223.09,98.14,132.73-20.77,58.93,3.08"/><path class="cls-1" d="M38.21,50.24s-17.07-17.07-5.14-26.81c11.94-9.74,22.69,5.64,22.69,5.64,0,0-15.92,14.46-17.55,21.17"/><path class="cls-1" d="M119.91,86.86c-1.06-.79-4.24-1.32-9,0-4.77,1.32-7.41-.27-7.41-.27,2.65,4.24,6.09,5.3,6.09,5.3,8.74,4.24,5.56,13.77,5.56,13.77,4.77-12.18,10.06-13.77,10.06-13.77,.53,12.18-5.83,20.65-5.83,20.65,0-9-11.74-1.85-11.74-1.85-15.97,7.68-29.57-.79-29.57-.79,0,0-.53,2.12,3.09,9.62,3.62,7.5,18.09-1.15,25.77-4.94,7.68-3.79,9.27-1.5,11.65,2.82,2.38,4.32-.26,9.97-.26,9.97-18.53,7.41-37.6-1.06-41.83-4.24-4.24-3.18-7.41-20.65-7.41-20.65-46.07-21.71-5.82-73.07,5.3-72.54,11.12,.53,24.36,24.89,24.36,24.89-5.82-19.06-2.65-22.24-2.65-22.24,27.01,18,22.77,30.71,22.24,37.07s6.35,11.12,7.94,15.09c1.59,3.97-5.3,2.91-6.35,2.12"/><path class="cls-2" d="M36,28.41c-3.89,4.33,2.6,11.25,2.6,11.25,1.3-3.89,9.95-11.25,9.95-11.25-3.03-2.16-8.65-4.33-12.55,0"/><path class="cls-2" d="M86.06,62.73c-4.08-3.23-12.87,.69-17.83,.86,9.91-.41,8.07,6.41,22.07,6.41-2.09-3.65-1.18-4.85-4.25-7.27"/><path class="cls-2" d="M109.7,61.94c-1.39,2.86,1.06,5.1,2.54,6.86-.21-.79-.48-1.51-.6-2.39,.6-.14,1.19-.3,1.79-.45,2.24-3.01,.51-4.27,2.24-4.92-2.5-.21-3.19-1.66-5.97,.89"/></g></g></svg>